<?xml version="1.0" encoding="UTF-8"?>
<svg id="Capa_1" data-name="Capa 1" xmlns="http://www.w3.org/2000/svg" viewBox="0 0 1461.34 938.87">
  <defs>
    <style>
      .cls-1, .cls-2, .cls-3, .cls-4, .cls-5, .cls-6 {
        stroke-width: 0px;
      }

      .cls-1, .cls-6 {
        fill: #000;
      }

      .cls-2 {
        fill: #d6d6d6;
      }

      .cls-3 {
        fill: #b3b2b2;
      }

      .cls-7 {
        stroke-width: 7px;
      }

      .cls-7, .cls-8 {
        fill: none;
        stroke: #000;
        stroke-miterlimit: 10;
      }

      .cls-4 {
        fill: #999;
        opacity: .4;
      }

      .cls-5 {
        fill: #3d3638;
      }

      .cls-6 {
        opacity: .3;
      }

      .cls-8 {
        stroke-width: 3px;
      }
    </style>
  </defs>
  <g id="Carroceria">
    <g>
      <path class="cls-3" d="M1313.51,620.98c-3.1-11.02-1.58-14.2,6.77-1.35,4.1,6.31,13.27,13.23,18.26,18.34,3.15,3.23,5.34,7.37,5.73,11.86,1.15,13.2,1.32,31.16,6.24,55.55,5.07,25.14-5.16,28.21-15.68-8.41-4.42-15.39-5.89-21.15-21.32-75.99Z"/>
      <path class="cls-1" d="M1348.92,727.88c-5.87,0-11.74-10.06-17.45-29.95-2.16-7.54-3.65-12.87-6.35-22.56-2.85-10.22-7.09-25.43-14.97-53.45h0c-2.05-7.29-2.59-12.13,1.06-13.78,3.76-1.7,7.13,2.05,12.02,9.58,2.5,3.84,7.38,8.22,11.7,12.08,2.27,2.03,4.41,3.95,6.14,5.72,3.89,3.98,6.27,8.96,6.71,14,.27,3.06.48,6.38.71,9.89.77,11.89,1.73,26.68,5.47,45.27,1.94,9.62,2.86,21.42-3.77,23.04-.42.1-.84.15-1.25.15ZM1317.27,621.42c7.64,27.14,11.78,42.02,14.59,52.08,2.7,9.67,4.18,15,6.34,22.51,4.23,14.72,7.94,21.36,9.95,23.81.34-2.15.4-6.46-1.07-13.74-3.84-19.04-4.81-34.1-5.6-46.2-.23-3.48-.44-6.76-.7-9.74-.3-3.44-1.98-6.89-4.75-9.72-1.56-1.6-3.62-3.45-5.8-5.4-4.64-4.16-9.89-8.86-12.89-13.48-.03-.04-.05-.08-.08-.12Z"/>
    </g>
    <path class="cls-5" d="M1322.15,653.54c-10.44-36.49-13.28-40.59-13.28-40.59-24.28-31.97-212.95-98.04-260.29-166.59,0,0-12.55,6.63-20.6,2.45-.47.79-.99,1.54-1.56,2.28-7.76,10.2-22.04,16.42-33.51,21.42-1.3.55-2.55,1.1-3.78,1.64-3.57,1.59-7.25,2.92-10.77,2.92-2.03,0-3.99-.44-5.85-1.52-6.47-3.78-9.86-14.05-12.08-36.63-7.25-73.85-15.31-144.61-46.71-324.28-5.05-28.92,8.45-38.32,20.02-42.58.68-.25,1.34-.48,2-.69-.14-.39-.26-.76-.4-1.13-17.06-48.31-31.75-62.86-103.97-57.34C461.03,41.22,222.85,457.37,222.85,457.37c166.77,63.12,242.06,127.7,242.06,127.7,180.72-77.75,301.47,106.25,245.58,281.67l223.65,2.41c-47.59-279.43,208.76-284.99,262.03-161.32l91.54,6c10.51.69,21.02-1.48,30.35-6.36,3.96-2.08,11.05-5.96,15.35-8.87,0,0-1.52-10.98-11.27-45.07ZM941.19,484.8c-184.03-19.64-315.07-43.98-358.63-54.1-66.76-15.51-101.91-36.59-110.63-66.32-9.34-31.88,11.58-72.69,65.85-128.4,92.53-94.97,187.47-144.88,290.19-152.56,7.58-.57,14.2-.94,20.02-.94,30.74,0,39.14,10.49,49.76,58.86,35.87,163.37,47.14,338.07,47.25,339.82l.25,4.07-4.05-.43Z"/>
    <path class="cls-1" d="M1338.26,698.14c-.07-.46-1.68-11.61-11.38-45.55-10.08-35.25-13.24-40.83-13.76-41.61l-.08-.12c-10.18-13.38-45.12-31.1-89.36-53.52-63.67-32.28-142.9-72.45-170.85-112.93l-.04-.06c-.97-1.4-2.83-1.86-4.33-1.06l-.07.03c-3.02,1.59-12.04,5.13-17.33,2.5-.4-.19-.76-.43-1.1-.69-1.03-.79-1.85-1.88-2.44-3.3l-5.79,3.9c.58,1.14,1.28,2.18,2.11,3.09.76.87,1.63,1.63,2.59,2.28.51.33,1.03.63,1.59.91,7.16,3.53,16.27.62,20.85-1.31,30.27,41.08,108.56,80.77,171.7,112.79,41.54,21.06,77.45,39.26,86.85,51.38.46.85,3.67,7.53,12.84,39.61,7.24,25.35,9.93,37.9,10.8,42.49-3.89,2.44-9.31,5.42-13.17,7.45-8.72,4.56-18.58,6.65-28.52,5.97l-51.92-3.41-7.97-.52-29.57-1.93c-13.1-28.96-37.76-52.18-69.64-65.53-31.88-13.35-67.2-15.45-99.44-5.9-37.05,10.96-66.14,35.97-84.12,72.29-20.56,41.56-25.68,95.47-15.21,160.29l-214.91-2.33c29.15-96.7,6.41-199.6-57.24-257.32-24.63-22.34-53.34-36.09-85.33-40.89-33.9-5.06-69.93.3-107.1,15.94-11.94-9.64-88.01-68.35-237.59-125.48,11.36-18.98,69.31-112.42,162.92-207.55,96.13-97.68,250.65-217.17,440.84-231.71,72.41-5.53,84.47,9.8,100.45,55.05.08.22.15.44.23.68.37,1.06.74,2.14,1.13,3.24.37,1.08.74,2.17,1.1,3.28l6.59-2.04c-.37-1.12-.74-2.21-1.12-3.27-.37-1.12-.74-2.21-1.12-3.27-.11-.32-.22-.62-.33-.92-8.76-24.81-16.93-41.05-32.75-50.64-15.29-9.27-36.93-11.87-74.72-8.98-85,6.5-170.05,34.03-252.79,81.83-66.1,38.2-130.88,89.35-192.56,152.03-104.93,106.67-165.32,211.28-165.93,212.32l-2,3.52,3.78,1.42c164.16,62.14,240.28,126.46,241.03,127.11l1.64,1.39,1.97-.84c70.76-30.45,137.17-22.31,187.03,22.88,62.65,56.82,84.33,159.11,53.91,254.57l-1.41,4.44,232.44,2.51-.69-4.07c-20.42-119.88,14.65-205.45,93.82-228.88,64.41-19.06,136.92,12.11,161.65,69.5l.84,1.93,37.23,2.44,7.78.51,48.62,3.19c11.2.74,22.33-1.59,32.17-6.74,1.7-.88,10.41-5.49,15.69-9.06l1.78-1.2-.29-2.12Z"/>
    <path class="cls-1" d="M944.99,481.16c-.11-1.75-11.38-176.45-47.25-339.82-10.62-48.36-19.02-58.86-49.76-58.86-5.82,0-12.44.37-20.02.94-102.72,7.68-197.66,57.59-290.19,152.56-54.27,55.71-75.19,96.52-65.85,128.4,8.72,29.73,43.87,50.8,110.63,66.32,43.56,10.12,174.6,34.46,358.63,54.1l4.05.43-.25-4.07ZM584.11,423.98c-64.08-14.89-97.62-34.45-105.57-61.53-8.45-28.86,12.54-68.65,64.18-121.66,91.29-93.73,184.76-142.97,285.75-150.51,7.89-.59,14.59-1.03,20.33-1.03,25.59,0,32.39,8.88,42.21,53.58,32.7,148.98,44.89,307.44,46.82,334.68-181.55-19.53-310.61-43.51-353.72-53.52Z"/>
    <path class="cls-1" d="M1029.94,445.12c-.55,1.28-1.21,2.52-1.97,3.7-.47.79-.99,1.54-1.56,2.28-7.76,10.2-22.04,16.42-33.51,21.42-1.3.55-2.55,1.1-3.78,1.64-3.57,1.59-7.25,2.92-10.77,2.92-2.03,0-3.99-.44-5.85-1.52-6.47-3.78-9.86-14.05-12.08-36.63-7.25-73.85-15.31-144.61-46.71-324.28-5.05-28.92,8.45-38.32,20.02-42.58.68-.25,1.34-.48,2-.69,1.61-.54,3.17-.98,4.59-1.37.37,1.06.74,2.15,1.12,3.27.37,1.06.74,2.15,1.12,3.27-1.48.4-3.03.84-4.59,1.34-.66.22-1.34.46-2,.7-10.01,3.67-19.62,11.13-15.46,34.88,31.44,179.91,39.5,250.81,46.78,324.79,1.85,18.75,4.69,29,8.69,31.35,1.96,1.14,4.96.63,10.36-1.75,1.23-.54,2.51-1.1,3.81-1.67,11.63-5.06,25.28-11,31.57-20.45.5-.73.94-1.49,1.32-2.28,1.64-3.21,2.44-6.81,2.08-10.88l.3-.03c.66,3.52,1.03,5.5,1.08,5.72.23,1.37.57,2.55,1.01,3.56.59,1.42,1.41,2.51,2.44,3.3Z"/>
    <path class="cls-1" d="M932.46,846.53c-11.24-.2-37.78-1.11-63.45-1.98-18.82-.64-36.6-1.25-46.72-1.52-42.26-1.13-65.64-16.17-71.48-45.98-21.28-108.61-49.92-182.6-95.77-247.4-17.05-24.1-21.19-44.75-12.66-63.13,7.39-15.93,22.96-27.65,38.02-38.99,1.44-1.09,2.88-2.17,4.31-3.25l4.23,5.57c-1.43,1.09-2.88,2.18-4.33,3.27-14.37,10.82-29.22,22-35.88,36.34-7.38,15.9-3.45,34.27,12.03,56.14,46.46,65.66,75.44,140.46,96.92,250.1,5.19,26.47,25.78,39.29,64.8,40.33,10.14.27,27.93.88,46.77,1.52,25.64.88,52.15,1.78,63.33,1.98l-.12,7Z"/>
    <path class="cls-1" d="M891.46,842.1l-7-.07c.01-1.17,1.8-118.6,59.45-274.89,11.84-32.1,8.32-42.57-.19-67.85-1.66-4.93-3.54-10.53-5.51-16.89l6.69-2.07c1.95,6.28,3.82,11.83,5.46,16.73,8.8,26.15,12.81,38.08.12,72.5-57.2,155.07-59.01,271.38-59.02,272.54Z"/>
    <path class="cls-8" d="M670.55,521.85c-.71-8.85-1.74-20.41,13.84-21.42,35.86-2.33,60.1,13.6,65.35,18.33,17.19,15.48,10.94,34.3-38.76,36.08-23.19.83-37.84-.76-40.43-33Z"/>
    <path class="cls-1" d="M943.12,484.89c-.55,0-1.1,0-1.65-.02l.15-7c23.5.51,49.59-11.07,67.38-20.88l3.38,6.13c-18.14,10-44.71,21.76-69.27,21.76Z"/>
    <path class="cls-1" d="M1017.05,453.93c6.61-4.6,11.33-9.19,15.32-14.08,2.2-2.7,6.55-1.34,6.76,2.13.25,4.22.17,9.04,3.72,10.69,0,0-28.1,9.16-53.93,21.2,0,0,22.97-16.35,28.13-19.94Z"/>
    <path class="cls-7" d="M997.18,466.96c65.52,35.4,99.06,35.19,174.19,67.32"/>
    <path class="cls-1" d="M227.08,459.44l-5.63-4.16c57-77.26,148.36-187.69,259.97-275,115.98-90.73,230.97-139.36,341.79-144.53,38.72-1.81,61.05,2.13,74.69,13.17,13.6,11,18.2,28.45,21.55,54.87l-6.95.88c-3.12-24.65-7.24-40.79-19-50.31-12.19-9.86-33.11-13.33-69.96-11.61-260.47,12.16-485.5,266.29-596.45,416.7Z"/>
    <path class="cls-1" d="M1074.97,568.52c-12.81,0-28.71-3.04-43.62-7.32-35.05-10.07-59.36-28.91-55.34-42.89.98-3.41,3.48-6.23,7.44-8.39,12.33-6.74,36.76-6.19,62.25,1.42,23.69,7.07,45.88,21.89,52.75,35.25,2.15,4.18,2.68,7.96,1.56,11.22h0c-2.65,7.73-12.32,10.72-25.03,10.72ZM1007.32,509.37c-9.12,0-16.8,1.38-21.89,4.17-2.95,1.61-4.78,3.6-5.44,5.91-2.91,10.12,17.5,27.72,52.51,37.77,33.94,9.75,60.1,9.44,63.6-.76h0c.73-2.13.27-4.89-1.32-7.99-5.49-10.68-24.52-25.5-50.25-33.18-13.16-3.93-26.22-5.92-37.19-5.92Z"/>
    <path class="cls-1" d="M1240.27,714.08l-7.78-.51c-.48-1.2-.97-2.37-1.48-3.54-.51-1.2-1.02-2.39-1.56-3.57-34.09-75.81-105.19-111.5-169.06-106.06-84.74,7.2-165.25,84.76-154.11,241.77l-6.88.48c-11.47-161.69,72.3-241.64,160.4-249.12,45.03-3.83,91.06,11.46,126.28,41.98,22.15,19.18,39.41,43.33,51.34,71.48.5,1.17.99,2.36,1.46,3.56.48,1.17.95,2.36,1.38,3.54Z"/>
    <path class="cls-4" d="M939.1,516.93c-83.02-11.42-241.78-35.72-272.72-37.95,7.77-8.46,15.28-14.01,19.68-17.44,163.5,24.97,205.48,29.17,246.46,33.49,2.28,5.21,4.45,13.6,6.58,21.89Z"/>
    <path class="cls-4" d="M1058.91,557.68c5.71-6.45,1.55-14.12-17.71-21.4-6.34-2.39-33.93-9.37-54.78-13.84-.03-.41.01-.81.12-1.2.32-1.13,1.28-2.12,2.84-2.98,3.35-1.83,8.72-2.73,15.33-2.73,9.82,0,26.16,2.04,38.95,5.84,22.4,6.63,40.4,20.47,44.44,28.39.55,1.09,1.12,2.66.68,3.9-1.42,4.03-13.32,6.49-29.88,4.02Z"/>
    <path class="cls-4" d="M960.96,497.65c8.22,1.52,16.29,3.08,24.23,4.67-1.71.62-3.28,1.32-4.74,2.12-6.8,3.72-9.42,8.65-10.41,12.12-.28.95-.47,1.92-.57,2.9-.83-.15-1.61-.3-2.36-.43.17-6.12-5.28-15.85-6.15-21.39Z"/>
    <path class="cls-4" d="M1092.97,572.05c6.61-2.43,10.92-6.52,12.89-12.26,1.7-4.92,1.05-10.33-1.9-16.07-2.66-5.2-7.2-10.48-13.06-15.49,111.11,32.34,180.1,69.81,198.91,85.94,17.24,14.77-89.71-33.14-196.84-42.13Z"/>
    <path class="cls-1" d="M1074.96,568.5c-12.81,0-28.71-3.04-43.62-7.32-35.05-10.07-59.36-28.91-55.34-42.89.98-3.41,3.48-6.23,7.44-8.39,12.33-6.74,36.76-6.19,62.25,1.42,23.69,7.07,45.88,21.89,52.75,35.25,2.15,4.18,2.68,7.96,1.56,11.22h0c-2.65,7.73-12.32,10.72-25.03,10.72ZM1007.31,509.35c-9.12,0-16.8,1.38-21.89,4.17-2.95,1.61-4.78,3.6-5.44,5.91-2.91,10.12,17.5,27.72,52.51,37.77,33.94,9.75,60.1,9.44,63.6-.76h0c.73-2.13.27-4.89-1.32-7.99-5.49-10.68-24.52-25.5-50.25-33.18-13.16-3.93-26.22-5.92-37.19-5.92Z"/>
    <path class="cls-6" d="M757.06,742.95c4.37,17.12,10.75,54.59,14.34,62.52,3.59,7.93,12.2,14.39,22.62,15.47,7.27.76,70.93,6.95,81.28,7.17,0,0,1.13-32.26,7.63-77.43,0,0-5.52,26.81-32.92,26.96-22.58.12-61.4-6.78-71.91-8.27-10.51-1.49-17.61-15.88-21.03-26.42"/>
    <path class="cls-6" d="M734.04,850.74s6.85-39.47,5.41-48.99c0,0,3.28,46.47,56.51,50.46,0,0-58.37-1.67-61.92-1.47Z"/>
    <path class="cls-4" d="M1221.01,699.86l-17.02-1.16c-50.09-104.05-261.65-121.05-281.12,77.98,0,0-10.33-15.89-3.59-41.33,44.78-169.25,240.81-163.53,301.72-35.5Z"/>
    <path class="cls-6" d="M1226.74,667.83c8.18,14.48,15.55,31.52,15.55,31.52,8.18.78,35.92,3.26,35.92,3.26-34.6-5.55-51.47-34.78-51.47-34.78Z"/>
    <path class="cls-2" d="M1327,638.07c6.72,5.49,9.58,7.03,10.28,13.76.52,4.99.71,7.9.97,11.87,2.02,30.95-11.25-25.63-11.25-25.63Z"/>
    <path class="cls-1" d="M738.84,521.41c-4.63-3.63-21.97-12.77-46.18-11.46-4.73.25-8.29.9-10.25,3.21-1.24,1.48-1.64,3.34-1.64,5.65,0,1.78.23,3.82.51,6.14,2.19,18.82,11.45,21.58,25.47,21.58,1.42,0,2.88-.03,4.4-.07,19.93-.57,31.69-4.62,34.03-11.75,1.41-4.27-.84-9.01-6.34-13.31ZM726.04,519.25c-11.16.74-22.29-1.64-30.31-5.28,12.65-.23,23.06,2.41,30.31,5.28ZM711.04,542.33c-6.33.18-11.25.08-15.05-1.03,9.56-3.68,22.57-2.39,31.46-.58-4.12.81-9.47,1.42-16.41,1.61ZM741.26,533.44c-.32.97-1.5,3.06-5.94,4.98-4.52-1.31-28.75-7.72-44.05.48-3.19-2.61-5.02-7.03-5.87-14.42-.52-4.59-.8-7.46.19-8.63.44-.54,1.3-.94,2.65-1.23,7.43,4.84,19.91,8.92,33.47,8.92,3.74,0,7.54-.3,11.34-.99,1.42.81,2.51,1.54,3.25,2.12,3.97,3.1,5.78,6.3,4.96,8.77Z"/>
    <path class="cls-4" d="M738.18,529.77c-15.24-1.08-42.62-3.2-49.31-3.71-.58-3.59-.58-6.67-.58-6.67,29.58,10.34,44.82,5.75,44.82,5.75,2.21,1.61,4.29,3.44,5.07,4.63Z"/>
    <path class="cls-6" d="M738.37,531.45c.07,2.68-3.23,4.1-3.23,4.1-29-6.88-42.97-.66-42.97-.66-1.48-1.71-2.4-4.34-2.95-6.96,11.16.87,33.97,2.38,49.15,3.52Z"/>
    <path class="cls-6" d="M679.99,527.92c1.07,16.06,11.08,19.91,23.72,19.81,10.19-.09,43.5,1.9,43.99-15.42l6.57.86c.61,17.38-45.77,20.46-61.5,17.38-13.7-2.68-16.04-11.6-17.88-22.36l5.1-.26Z"/>
    <path class="cls-4" d="M679.44,525.67c-1.6-9.65-.53-15.73,6.21-16.71,39.14-5.71,61.87,14.38,62.3,21.5l6.33.74c-5.74-20.28-50.27-30.27-69.36-27.1-9.96,1.65-12.24,6.94-10.02,21.32l4.55.25Z"/>
    <path class="cls-4" d="M656.21,456.12c-8.48,6.75-14.68,11.37-18.62,19.35-2.46-.14-4.77-.37-6.31-.43-71.48-3.07-13.99,45.49-12.66,46.92-113.7-81.49-275.03-34.14-275.03-34.14,20.65-9.09,59.53-17.15,73.73-19.66,41.7-7.36,48.83-49.15-1.52-61.73-96.25-24.05-171.21,41.74-171.21,41.74C517.27,78.21,769.05,38.31,867.17,49.78c18.92,2.21,31.23,10.21,36.29,38.26,1.33,7.38-3.29,7-5.08,1.21-6.96-22.48-11.72-32.61-55.87-33.05-161.72-1.59-358.88,113.76-473.99,260.01-63.77,81.01-17.58,67.71,5.06,67.9,119.64,1.02,96.2,51.12,282.63,72.01Z"/>
    <path class="cls-4" d="M1029.78,461.54s14.99-4.87,17.94-5.39c0,0,6.76,9.07,13.09,13.86,0,0-9.09-6.93-31.03-8.47Z"/>
  </g>
</svg>