<?xml version="1.0" encoding="UTF-8"?><svg id="a" xmlns="http://www.w3.org/2000/svg" width="1622.14" height="1047.4" viewBox="0 0 1622.14 1047.4"><g id="b"><path d="M196.38,589.69l13.72-24.39c6.27-11.15,3.7-33.55-7.45-64.79-9.36-26.26-22.24-51.9-28.43-64.22-.76-1.52-1.42-2.82-1.95-3.9-17.84-36.02-21.54-58.27-10.99-66.13,11.72-8.73,34.47,5.49,50.39,20.32,15.86,14.78,27.29,22.54,34.58,26.59-9.16-18.32-11.3-38.09-5.94-56.71,6.63-23.04,24.47-42.09,50.23-53.63,3.76-1.68,8.03-1.07,11.14,1.6,3.11,2.67,4.36,6.78,3.27,10.74-2.97,10.76-4.85,26.21,3.05,38.74,6.54,10.38,18.91,17.27,36.76,20.47,7.35,1.32,10.16,5.64,11.22,9.03,2.85,9.11-2.78,23.75-17.72,46.06-11.17,16.68-27.49,37.4-48.51,61.58-35.7,41.07-73.18,78.49-73.55,78.87l-19.82,19.76ZM170.19,371.3c-1.81,0-3.26.39-4.29,1.16-5.19,3.86-4.41,20.73,13.3,56.5.53,1.06,1.18,2.36,1.93,3.86,11.33,22.57,42.69,85.01,39.79,121.37,56.77-57.84,134.43-146.85,127.68-168.45-.43-1.38-1.41-3.05-5.21-3.73-20.08-3.6-34.19-11.66-41.93-23.96-9.4-14.92-7.34-32.66-3.96-44.92.42-1.52-.45-2.47-.85-2.81-.4-.34-1.49-1.07-2.94-.42-23.65,10.6-39.97,27.9-45.96,48.71-5.73,19.92-1.86,41.41,10.9,60.52l4.85,7.26-8.64-1.29c-1.61-.24-16.65-3.2-48.46-32.85-15.52-14.46-28.86-20.94-36.21-20.94Z" fill="#000" stroke="#000" stroke-miterlimit="10" stroke-width="8"/></g><g id="c"><path d="M213.47,567.19c17.28-30.72-28.59-118.07-37.73-136.52-39.09-78.9-.81-73.04,33.3-41.26,31.85,29.68,46.39,31.85,46.39,31.85-26.8-40.11-15.88-91.34,36.7-114.91,5.13-2.3,10.6,2.37,9.1,7.79-5.38,19.52-7.61,55,42.85,64.05,49.98,8.97-130.61,189-130.61,189Z" fill="#3d3638" stroke-width="0"/><path d="M196.38,589.69l13.72-24.39c6.27-11.15,3.7-33.55-7.45-64.79-9.36-26.26-22.24-51.9-28.43-64.22-.76-1.52-1.42-2.82-1.95-3.9-17.84-36.02-21.54-58.27-10.99-66.13,11.72-8.73,34.47,5.49,50.39,20.32,15.86,14.78,27.29,22.54,34.58,26.59-9.16-18.32-11.3-38.09-5.94-56.71,6.63-23.04,24.47-42.09,50.23-53.63,3.76-1.68,8.03-1.07,11.14,1.6,3.11,2.67,4.36,6.78,3.27,10.74-2.97,10.76-4.85,26.21,3.05,38.74,6.54,10.38,18.91,17.27,36.76,20.47,7.35,1.32,10.16,5.64,11.22,9.03,2.85,9.11-2.78,23.75-17.72,46.06-11.17,16.68-27.49,37.4-48.51,61.58-35.7,41.07-73.18,78.49-73.55,78.87l-19.82,19.76ZM170.19,371.3c-1.81,0-3.26.39-4.29,1.16-5.19,3.86-4.41,20.73,13.3,56.5.53,1.06,1.18,2.36,1.93,3.86,11.33,22.57,42.69,85.01,39.79,121.37,56.77-57.84,134.43-146.85,127.68-168.45-.43-1.38-1.41-3.05-5.21-3.73-20.08-3.6-34.19-11.66-41.93-23.96-9.4-14.92-7.34-32.66-3.96-44.92.42-1.52-.45-2.47-.85-2.81-.4-.34-1.49-1.07-2.94-.42-23.65,10.6-39.97,27.9-45.96,48.71-5.73,19.92-1.86,41.41,10.9,60.52l4.85,7.26-8.64-1.29c-1.61-.24-16.65-3.2-48.46-32.85-15.52-14.46-28.86-20.94-36.21-20.94Z" fill="#000" stroke-width="0"/><path d="M225.51,528.67c13.66-19.85,39.02-59.45,39.02-59.45-30.7-1.05-57.18-18.44-67.52-26.19-1.08-.81-2.5.4-1.88,1.61,25.81,50.54,30.38,84.03,30.38,84.03Z" fill="#000" opacity=".3" stroke-width="0"/><path d="M288.85,319.63s-7.24,24,4.89,43.18c0,0-26.42,40.72-39.45,19.27,0,0-8.69-35.97,34.56-62.45Z" fill="#999" opacity=".4" stroke-width="0"/><path d="M327.76,203.38c-7.2-29.98,25.21-37.27,9.4-39.82-93.04-14.96-142.7-35.15-163.85-45.72-6.04-3.02-13.19,1.14-13.53,7.89-2.58,52.64-6.71,202.43,8.41,244.13,17.07,47.05,55.32,79.63,91.46,126.86,5.99,7.66,96.69-125.34,99.34-136.89,7.84-34.13-6.17-52.11-31.24-156.46ZM220.37,154.76c12.76,1.68,52.93,15.55,75.58,17.52,11.71,1.02,17.3,12.07,11.32,24.68-3.31,6.98-22.86,12.72-34.15,9.84-15.98-4.08-54.02-15.3-82.77-28.15-12.93-5.78,13.46-26.07,30.02-23.89ZM255.78,398.1c-18.64-.94-34.46,1.01-42.53-.55-16.15-3.12-33.92-33.39-36.29-51.57-4.49-34.44-4.27-55.41-4.32-70.58-.17-49.22,28.82-67.43,40.68-49.37,24.4,37.15,50.59,92.73,62.18,115.36,10.36,20.23,8.67,58.15-19.72,56.7ZM302.42,371.55c-22.22-30.49-66.59-105.83-72.66-118.43-23.3-48.41.88-51.31,27.78-43.84,7.63,2.12,28.74,9.47,39.65,13.26,12.12,4.21,22.22,17.23,27.11,36.78,3.66,14.65,11.7,56.44,14.67,70.13,3.62,16.65-12.44,75.2-36.56,42.12Z" fill="#c7c7c7" stroke="#000" stroke-miterlimit="10" stroke-width="17"/><path d="M327.76,203.38c-7.2-29.98,25.21-37.27,9.4-39.82-93.04-14.96-142.7-35.15-163.85-45.72-6.04-3.02-13.19,1.14-13.53,7.89-2.58,52.64-6.71,202.43,8.41,244.13,17.07,47.05,55.32,79.63,91.46,126.86,5.99,7.66,96.69-125.34,99.34-136.89,7.84-34.13-6.17-52.11-31.24-156.46ZM224.2,171.03c12.76,1.68,39.24,5.09,61.89,7.05,11.71,1.02,13.85,4.49,7.87,17.1-3.31,6.98-7.48,6.37-18.77,3.49-15.98-4.08-29.03-9.1-57.79-21.95-12.93-5.78-9.76-7.87,6.79-5.7ZM255.78,381.53c-18.64-.94-34.46-1.2-42.53-2.76-16.15-3.12-20.66-14.61-23.03-32.79-4.49-34.44-5.38-55.41-5.43-70.58-.17-49.22,15.56-39.81,27.42-21.75,24.4,37.15,41.75,71.74,53.34,94.37,10.36,20.23,18.61,34.96-9.78,33.51ZM307.54,355.62c-22.22-30.49-45.43-72.32-51.5-84.93-23.3-48.41-17.93-51.03,8.97-43.57,7.63,2.12,15.15,4.18,26.06,7.97,12.12,4.21,16.74,10.04,21.63,29.58,3.66,14.65,13.89,52.42,16.87,66.1,3.62,16.65,2.08,57.93-22.03,24.84Z" fill="#c7c7c7" stroke="#000" stroke-miterlimit="10" stroke-width="7"/><path d="M319.43,191.07c-.27-11.76,7.12-19.84,7.12-19.84-86.38-16.08-119.36-30.6-119.36-30.6,27.15,13.03,62.02,27.82,62.02,27.82,18.38,1.18,38.64,0,37.04,16.41l13.18,6.21Z" fill="#999" opacity=".4" stroke-width="0"/><path d="M323.18,172.55c-59.72-8.73-133.52-35.05-149.1-40.76-1.48-.55-3.05.5-3.11,2.07l-2.01,54.49c107.04,19.91,154.78,45.51,155.35,46.04-19.53-51.85-1.13-61.84-1.13-61.84ZM301.53,198.77c-3.78,7.98-9.34,10.27-15.35,10.27-4.28,0-8.79-1.16-13.05-2.24-16.21-4.14-29.46-9.17-59.13-22.42-5.25-2.35-15.05-6.72-12.6-15.35,2.57-9.09,14.39-7.54,23.9-6.29,9.31,1.22,37.62,4.93,61.52,7.01,6.4.56,13.43,1.96,16.95,8.1,3.7,6.44,1.11,13.86-2.24,20.93Z" fill="#000" opacity=".3" stroke-width="0"/><path d="M259.22,476.28s30.9-46.42,38.5-56.73c0,0-74.11,3.53-112.93-35.83,0,0,19.55,38,74.43,92.57Z" fill="#000" opacity=".3" stroke-width="0"/></g></svg>