<?xml version="1.0" encoding="UTF-8"?>
<svg id="a" xmlns="http://www.w3.org/2000/svg" width="1622.14" height="1047.4" viewBox="0 0 1622.14 1047.4">
    <g id="b">
    <g id="c">
        <path d="M769.34,166.58l-5.98-1.89c5.41-2.83,11.26-5.61,17.48-8.33v13.23l-8.67-6.82-2.84,3.81Z" fill="#262625" opacity=".6" stroke="#000" stroke-miterlimit="10" stroke-width="3"/>
        <path d="M796.06,169.24l-10.89-14.76c5.75-2.48,8.95-3.67,15.25-6l-4.36,20.77Z" fill="#262625" opacity=".6" stroke="#000" stroke-miterlimit="10" stroke-width="3"/>
        <polygon points="791.63 306.89 768.35 321.11 759.22 216.84 789.34 194.9 778.66 230.59 818.65 214.63 788.38 251.67 811.35 256.57 818.65 278.7 788.38 289.46 791.63 306.89" fill="#262625" opacity=".6" stroke="#000" stroke-miterlimit="10" stroke-width="3"/>
        <path d="M826.87,146.59l-16.41-1.69c9.7-3.38,12.34-4.7,22.59-7.34l-6.18,9.03Z" fill="#262625" opacity=".6" stroke="#000" stroke-miterlimit="10" stroke-width="3"/>
        <path d="M856.4,494.76s-25.21-3.18-73.82-10.88l-7.92-90.57,30.55,16.67,13.45,34.84-4.4,12.79,29.77-11.22,12.38,48.37Z" fill="#262625" opacity=".6" stroke="#000" stroke-miterlimit="10" stroke-width="3"/>
        <path d="M876.71,159.09l-35.65-23.66c28.79-7.9,59.43-13.63,87.49-15.56,23.69-1.62,32.69-.11,40.31,26.16.61,2.11,2,7.92,3.97,17.27l-11.57,19.36-4.52-32.69-11.03,13.8.72-17.19-40.13,7.64-29.58-7.64v12.5Z" fill="#262625" opacity=".6" stroke="#000" stroke-miterlimit="10" stroke-width="3"/>
        <path d="M978.11,189.82s8.73,44.7,18.38,112.04l-16.52-12.41,4.65-17.47-27.89-22.51h23.78l-23.78-33.41,21.38-26.25Z" fill="#262625" opacity=".6" stroke="#000" stroke-miterlimit="10" stroke-width="3"/>
        <path d="M1020.82,513.58s-42.22-3.5-106.45-11.31l3.81-71.23,43.08,29.78v-14.43l18.72,17.7,30.44-53.32c3.59,31.65,7.11,65.95,10.41,102.8Z" fill="#262625" opacity=".6" stroke="#000" stroke-miterlimit="10" stroke-width="3"/>
        <path d="M632.42,408.71l3.39,50.4h-.03c-11.66-3.09-22.07-6.39-31.22-9.99-33.16-13.05-50.15-29.86-55.55-48.92l26.3-10.94,25.99-.7,7.14,34.03,23.98-13.88Z" fill="#262625" opacity=".6" stroke="#000" stroke-miterlimit="10" stroke-width="3"/>
        <path d="M671.34,221.55l-2.22,31.57h-11.75l-6.34,36.31-14.15-24.69-4.46,23.96-31.11,17.02.63,17.62-22.94-8.45v-.02c4.75-6.08,9.92-12.18,15.39-18.26,26.13-29.1,44.39-48.96,76.96-75.06Z" fill="#262625" opacity=".6" stroke="#000" stroke-miterlimit="10" stroke-width="3"/>
        <polygon points="695.73 354.1 706.58 333 695.73 321.11 709.51 288.91 709.54 289.17 714.08 345.8 695.73 354.1" fill="#262625" opacity=".6" stroke="#000" stroke-miterlimit="10" stroke-width="3"/>
        <path d="M724.55,476.14c-8.8-1.3-17.3-2.63-25.46-3.99l-3.36-25.75,12.48-9.54v-35.22l11.4,13.07v.03l4.94,61.4Z" fill="#262625" opacity=".6" stroke="#000" stroke-miterlimit="10" stroke-width="3"/>
    </g>
        <path d="M991.84,161.72c-13.81-62.89-23.87-64.67-73.07-61-97.91,7.31-204.21,50.48-318.06,167.36-118.32,121.46-89.12,176.94,47.57,208.7,52.79,12.28,197.37,38.52,395.65,59.68,0,0-12.08-192.5-52.09-374.74ZM605.92,448.69c-86.36-34.01-62.75-93.46-10.14-152.01,33.28-37.04,53.74-59.08,107.49-98.26l22.25,277.2c-51.03-7.55-91.4-15.81-119.6-26.93ZM755.93,169.72c39.8-23.12,112.39-45.05,172.91-49.2,23.61-1.61,32.58-.11,40.18,26.08,3.46,11.94,31.71,141.84,51.8,366.33,0,0-106.01-8.79-237.47-29.59l-27.42-313.62Z" fill="#151515" stroke-width="0"/>
        <path d="M734.61,160.23c8.29,101.78,16.69,212.01,27.98,338.34" fill="#151515" stroke-width="0"/>
        <path d="M755,499.25c-8.33-93.18-14.96-176.11-21.38-256.32-2.06-25.74-4.07-50.87-6.07-75.49l14.64-7.83c2.18,26.74,4.36,54.06,6.61,82.11,6.41,80.17,13.04,163.06,21.36,256.17l-15.17,1.36Z" fill="#000" stroke-width="0"/>
        <rect x="906.71" y="114.19" width="57.81" height="7" rx="3.5" ry="3.5" transform="translate(1875.77 190.92) rotate(177.28)" fill="#999" stroke-width="0"/>
        <rect x="933.05" y="125.9" width="37.47" height="7" rx="3.5" ry="3.5" transform="translate(1908.64 213.56) rotate(177.28)" fill="#999" stroke-width="0"/>
        <rect x="955.19" y="137.62" width="18.57" height="7" rx="3.5" ry="3.5" transform="translate(1934.56 236.39) rotate(177.28)" fill="#999" stroke-width="0"/>
        <rect x="778.29" y="486.9" width="59.91" height="7.25" rx="3.63" ry="3.63" transform="translate(71.52 -102.02) rotate(7.56)" fill="#999" stroke-width="0"/>
        <rect x="709.93" y="474.27" width="19.76" height="7.45" rx="3.72" ry="3.72" transform="translate(69.1 -90.5) rotate(7.56)" fill="#999" stroke-width="0"/>
        <rect x="777.4" y="470.95" width="29.96" height="7.25" rx="3.63" ry="3.63" transform="translate(69.28 -100.07) rotate(7.56)" fill="#999" stroke-width="0"/>
        <rect x="722.52" y="461.96" width="11.43" height="7.45" rx="3.72" ry="3.72" transform="translate(67.55 -91.71) rotate(7.56)" fill="#999" stroke-width="0"/>
        <path d="M1133.83,468.27v.02c-.87,4.22-1.95,7.78-3.34,10.92-.52,1.19-1.08,2.3-1.69,3.35-4.65,8.13-12,13.01-24.05,18.69-13.54,6.38-20.85,4.63-24.6-33.04-7.57-76.22-17.69-148.51-48.16-330.77-5.7-34.07,1.71-29.88,9.19-35.37.64-.49,1.49-.46,2.17-.87,1.55-.94,3.15-1.74,4.78-2.42,2.16,6.75,4.34,13.91,6.55,21.42,22.1,75.38,46.29,186.16,62.85,266.6,7.08,34.44,12.76,63.32,16.3,81.47Z" fill="#262625" opacity=".6" stroke-width="0"/>
        <path d="M1138.87,492.8c-.15.47-.32.93-.5,1.39-.02.03-.03.06-.03.08-.15.35-.29.7-.46,1.05-.46,1.01-.96,1.98-1.54,2.92-.02.03-.03.05-.05.08-.23.37-.46.73-.7,1.08-.26.38-.52.75-.79,1.13-8.7,11.73-26.34,18.52-39.86,24.51-14.7,6.5-22.36,5.01-26.37-35.81-8.12-82.59-17.17-161.24-51.63-358.44-5.09-29.12,7.65-38.4,19.62-42.8.75-.27,1.48-.52,2.21-.76.52-.17,1.02-.32,1.52-.47.61-.18,1.2-.35,1.8-.52s1.17-.34,1.74-.49c.41,1.17.82,2.38,1.23,3.61.4,1.17.79,2.36,1.17,3.56.37,1.07.72,2.15,1.05,3.24.29.87.56,1.75.85,2.64-1.63.69-6.06,3.41-6.78,3.76-11.53,5.64-12.82,15.34-9.37,34.9,32.15,181.97,40.59,254.55,48.16,330.77,3.75,37.67,11.06,39.42,24.6,33.04,12.05-5.68,19.4-10.56,24.05-18.69.61-1.05,1.17-2.16,1.69-3.35,1.39-3.14,2.47-6.7,3.34-10.92.41,2.1.78,4.05,1.13,5.85.06.27.11.55.17.82.09.49.18.96.27,1.43.4,2.07.75,3.9,1.05,5.48.05.23.08.46.12.67.73,3.88,1.14,6.08,1.19,6.32.26,1.51.62,2.82,1.11,3.93Z" fill="#151515" stroke-width="0"/>
        <path d="M1012.48,474.64c8.66-38.58,19.78-27.79,22.23-3.58,1.91,18.92,5.64,46.26,7.18,57.32.37,2.62,2.09,6.15-.67,6.09-18.32-.37-42.08-4.82-42.08-4.82-13.97-1.73,4.1-13.86,13.33-55.01Z" fill="#050505" stroke="#000" stroke-miterlimit="10" stroke-width="5"/>
    </g>
    <g id="d">
        <path d="M1014.2,475.55c15.56,9.05,13.75,36.92,5.43,42.71-8.32,5.79-38.37,2.53-52.48,0-14.12-2.53-60.08-2-45.97-76.73,13.42-71.07,53.67-73.15,67.32-40.17,19.18,46.33,16.46,68.82,25.7,74.2Z" fill="#bf1600" stroke="#000" stroke-miterlimit="10" stroke-width="7"/>
        <path d="M1012.51,503.55c-.87,4.01-4.63,6.88-8.99,6.88h-.09c-1.33-.02-2.83-.06-4.46-.11-4.2-.13-9.23-.3-14.1.11-2.04.17-3.87-1.22-4.18-3.24l-.03-.21c-.05-.35.19-.68.54-.73,3.71-.53,7.55-.56,11.18-.65,8.96-.22,7.94-20.69,3.48-25.58-4.39-4.8-8.75-13.63-9.92-15.92-.16-.31-.03-.7.29-.85h0c1.94-.96,4.29-.21,5.31,1.7,1.68,3.13,4.3,7.71,6.66,10.71.43.55.88,1.1,1.34,1.63,2.53,2.91,5.67,5.35,9.08,7.59,7.17,4.7,3.9,18.67,3.9,18.67Z" fill="#000" stroke-width="0"/>
        <path d="M977.9,508.53s-1.41-2.67,1.78-4.16c2.06-.96,7.38-.78,11.72-1.22s5.88-18.64.63-20.99c-12.03-5.39-60.53-61.53-64.33-22.44,0,0-3.8,39.54,23.78,45.38,19.34,4.1,26.42,3.44,26.42,3.44Z" fill="#000" opacity=".3" stroke-width="0"/>
        <path d="M996.95,455.46s-6.55-31.13-14.46-49.55c-15.06-35.08-39.12-5.58-40.95.33,0,0,32.85-21.35,55.41,49.22Z" fill="#f2f2f2" opacity=".4" stroke-width="0"/>
    </g>
</svg>