<?xml version="1.0" encoding="UTF-8"?>
<svg id="a" xmlns="http://www.w3.org/2000/svg" width="1622.14" height="1047.4" viewBox="0 0 1622.14 1047.4">
<g id="b">
<path d="M991.84,161.72c-13.81-62.89-23.87-64.67-73.07-61-97.91,7.31-204.21,50.48-318.06,167.36-118.32,121.46-89.12,176.94,47.57,208.7,52.79,12.28,197.37,38.52,395.65,59.68,0,0-12.08-192.5-52.09-374.74ZM605.92,448.69c-86.36-34.01-62.75-93.46-10.14-152.01,33.28-37.04,53.74-59.08,107.49-98.26l22.25,277.2c-51.03-7.55-91.4-15.81-119.6-26.93ZM755.93,169.72c39.8-23.12,112.39-45.05,172.91-49.2,23.61-1.61,32.58-.11,40.18,26.08,3.46,11.94,31.71,141.84,51.8,366.33,0,0-106.01-8.79-237.47-29.59l-27.42-313.62Z" fill="#151515" stroke-width="0"/>
<path d="M725.06,476.07c-51.03-7.55-91.4-15.81-119.6-26.93-86.36-34.01-62.75-93.46-10.14-152.01,33.28-37.04,53.74-59.08,107.49-98.26l22.25,277.2Z" fill="#262625" opacity=".6" stroke-width="0"/>
<path d="M1020.82,512.93s-106.01-8.79-237.47-29.59l-27.42-313.62c39.8-23.12,112.39-45.05,172.91-49.2,23.61-1.61,32.58-.11,40.18,26.08,3.46,11.94,31.71,141.84,51.8,366.33Z" fill="#262625" opacity=".6" stroke-width="0"/>
<path d="M734.61,160.23c8.29,101.78,16.69,212.01,27.98,338.34" fill="#151515" stroke-width="0"/>
<path d="M755,499.25c-8.33-93.18-14.96-176.11-21.38-256.32-2.06-25.74-4.07-50.87-6.07-75.49l14.64-7.83c2.18,26.74,4.36,54.06,6.61,82.11,6.41,80.17,13.04,163.06,21.36,256.17l-15.17,1.36Z" fill="#000" stroke-width="0"/>
<rect x="906.71" y="114.19" width="57.81" height="7" rx="3.5" ry="3.5" transform="translate(1875.77 190.92) rotate(177.28)" fill="#999" stroke-width="0"/>
<rect x="933.05" y="125.9" width="37.47" height="7" rx="3.5" ry="3.5" transform="translate(1908.64 213.56) rotate(177.28)" fill="#999" stroke-width="0"/>
<rect x="955.19" y="137.62" width="18.57" height="7" rx="3.5" ry="3.5" transform="translate(1934.56 236.39) rotate(177.28)" fill="#999" stroke-width="0"/>
<rect x="778.29" y="486.9" width="59.91" height="7.25" rx="3.63" ry="3.63" transform="translate(71.52 -102.02) rotate(7.56)" fill="#999" stroke-width="0"/>
<rect x="709.93" y="474.27" width="19.76" height="7.45" rx="3.72" ry="3.72" transform="translate(69.1 -90.5) rotate(7.56)" fill="#999" stroke-width="0"/>
<rect x="777.4" y="470.95" width="29.96" height="7.25" rx="3.63" ry="3.63" transform="translate(69.28 -100.07) rotate(7.56)" fill="#999" stroke-width="0"/>
<rect x="722.52" y="461.96" width="11.43" height="7.45" rx="3.72" ry="3.72" transform="translate(67.55 -91.71) rotate(7.56)" fill="#999" stroke-width="0"/>
<path d="M1133.83,468.27v.02c-.87,4.22-1.95,7.78-3.34,10.92-.52,1.19-1.08,2.3-1.69,3.35-4.65,8.13-12,13.01-24.05,18.69-13.54,6.38-20.85,4.63-24.6-33.04-7.57-76.22-17.69-148.51-48.16-330.77-5.7-34.07,1.71-29.88,9.19-35.37.64-.49,1.49-.46,2.17-.87,1.55-.94,3.15-1.74,4.78-2.42,2.16,6.75,4.34,13.91,6.55,21.42,22.1,75.38,46.29,186.16,62.85,266.6,7.08,34.44,12.76,63.32,16.3,81.47Z" fill="#262625" opacity=".6" stroke-width="0"/>
<path d="M1138.87,492.8c-.15.47-.32.93-.5,1.39-.02.03-.03.06-.03.08-.15.35-.29.7-.46,1.05-.46,1.01-.96,1.98-1.54,2.92-.02.03-.03.05-.05.08-.23.37-.46.73-.7,1.08-.26.38-.52.75-.79,1.13-8.7,11.73-26.34,18.52-39.86,24.51-14.7,6.5-22.36,5.01-26.37-35.81-8.12-82.59-17.17-161.24-51.63-358.44-5.09-29.12,7.65-38.4,19.62-42.8.75-.27,1.48-.52,2.21-.76.52-.17,1.02-.32,1.52-.47.61-.18,1.2-.35,1.8-.52s1.17-.34,1.74-.49c.41,1.17.82,2.38,1.23,3.61.4,1.17.79,2.36,1.17,3.56.37,1.07.72,2.15,1.05,3.24.29.87.56,1.75.85,2.64-1.63.69-6.06,3.41-6.78,3.76-11.53,5.64-12.82,15.34-9.37,34.9,32.15,181.97,40.59,254.55,48.16,330.77,3.75,37.67,11.06,39.42,24.6,33.04,12.05-5.68,19.4-10.56,24.05-18.69.61-1.05,1.17-2.16,1.69-3.35,1.39-3.14,2.47-6.7,3.34-10.92.41,2.1.78,4.05,1.13,5.85.06.27.11.55.17.82.09.49.18.96.27,1.43.4,2.07.75,3.9,1.05,5.48.05.23.08.46.12.67.73,3.88,1.14,6.08,1.19,6.32.26,1.51.62,2.82,1.11,3.93Z" fill="#151515" stroke-width="0"/>
<path d="M1012.48,474.64c8.66-38.58,19.78-27.79,22.23-3.58,1.91,18.92,5.64,46.26,7.18,57.32.37,2.62,2.09,6.15-.67,6.09-18.32-.37-42.08-4.82-42.08-4.82-13.97-1.73,4.1-13.86,13.33-55.01Z" fill="#050505" stroke="#000" stroke-miterlimit="10" stroke-width="5"/>
</g>
</svg>