<?xml version="1.0" encoding="UTF-8"?><svg id="a" xmlns="http://www.w3.org/2000/svg" width="1622.14" height="1047.4" viewBox="0 0 1622.14 1047.4"><g id="c"><path d="M792.46,974.8c-3.11,11.79-8.25,25.08-11.56,39.71-.96,4.25,2.21,8.32,6.57,8.42,9.81.23,22.52.45,30.93-.23,29.15-2.36,70.63-15.61,207.46-7.64,7.6.44,13.67-6.25,12.45-13.77-1.85-11.45-3.64-13.92-4.8-23.48l-241.06-3.02Z" fill="none" stroke="#000" stroke-miterlimit="10" stroke-width="13"/><path d="M790.29,962.1c-3.11,11.79-9.4,37.78-12.7,52.41-.96,4.25,2.21,8.32,6.57,8.42,9.81.23,25.83.45,34.25-.23,29.15-2.36,75.05-15.61,211.88-7.64,7.6.44,13.67-6.25,12.45-13.77-1.85-11.45-4.27-26.96-5.43-36.52l-247.02-2.67Z" fill="#151515" stroke="#000" stroke-miterlimit="10" stroke-width="6"/><path d="M1001.7,973.89c1.4-.02,2.55,1.06,2.65,2.46.39,5.25-.48,16.93-16.06,16.93-111.02,0-140.07-15-157.98-21.81,0,0,145.45,2.71,171.39,2.41Z" fill="#fff" opacity=".12" stroke-width="0"/><path d="M788.59,1002.73c-.92,4.59-1.67,7.98-2.13,9.96-.25,1.1.52,2.15,1.64,2.24,5.11.41,18.8.58,33.07-.28,19.53-1.17,26.61-6.89,91.21-8.23,59.19-1.23,113.1.61,117.45.81,4.88.23,5.43-3.98,5.43-3.98-4.41,0-246.66-.53-246.66-.53Z" fill="#000" opacity=".4" stroke-width="0"/></g></svg>