<?xml version="1.0" encoding="UTF-8"?>
<svg id="a" xmlns="http://www.w3.org/2000/svg" width="1622.14" height="1047.4" viewBox="0 0 1622.14 1047.4">
<g id="c">
<path d="M1580.65,1001.91l-234.74-17.98.91-4.27c.86-4.06,20.75-100.4-15.89-191.64l-1.66-4.14,4.35-.99c29.38-6.69,68.84-23.68,70.37-40.81.87-9.7-20.19-21.26-37.1-30.55-18-9.88-32.21-17.69-31.7-27,.37-6.82,8.41-10.16,11.06-11.25,38.71-16.07,77.55,7.97,103.4,27.45,27.04,20.38,45.3,39.9,58.64,54.15,2.19,2.34,4.23,4.52,6.13,6.52,5.84,6.11,6.79,9.82,7.35,12.04.08.31.19.73.25.86,2.86,3.22,4.3,5.62,7.98,5.26,4.67-1.45,9.76,1.05,11.41,5.63,2.17,6.02,7.61,13.17,17.64,23.21,12.09,12.09,17.82,21.26,17.71,40.73-.14,24.11,2.6,36.08,4.25,41.07,1.36,4.12-.51,8.65-4.34,10.54-4.06,2-5.06,8.34-5.29,11.94-.54,8.34-2.16,33.71-.2,49.12,1.33,10.48,4.22,11.22,7.57,12.08,2.02.52,3.45,2.26,3.55,4.34v.22s0,.22,0,.22l-1.63,23.27ZM1347.36,976.97l226.23,16.78.93-13.24c-6.57-2.45-9.6-7.53-10.9-17.77-1.84-14.46-.79-35.78.16-50.57.59-9.18,3.88-15.5,9.52-18.28.43-.21.64-.81.47-1.33-2.19-6.63-4.76-19.56-4.63-43.5.1-16.97-4.48-24.3-15.48-35.3-11.01-11.01-16.82-18.79-19.42-26.01-.29-.79-1.16-1.06-2.02-.93-8.36,1.35-12.59-3.75-16-7.62-1.18-1.34-1.54-2.75-1.83-3.89-.43-1.69-1.02-4-5.49-8.67-1.92-2.01-3.98-4.21-6.18-6.57-13.15-14.05-31.15-33.29-57.67-53.27-24.35-18.35-60.78-41.06-95.89-26.49-4.62,1.92-6.32,3.69-6.37,4.63-.25,4.52,16.61,13.78,27.76,19.91,20.81,11.43,42.33,23.25,41.02,37.9-2.27,25.41-61.76,42.07-79.69,46.53,31.55,82.37,19.1,167.62,15.48,187.69Z" fill="#000" stroke="#000" stroke-miterlimit="10" stroke-width="8"/><path d="M1353.01,973.66c-1.46,15.12-.37,27.52,25.27,28.25,25.63.72,174.33,7.09,183.72,7.45,9.39.36,5.88-12.52,5.22-20.49" fill="#0d0d0d" stroke="#000" stroke-miterlimit="10" stroke-width="5"/>
<path d="M1342.81,980.45l234.31,17.38,1.37-19.45c-.02-.4-.3-.74-.69-.84-5.74-1.47-9.02-4.37-10.41-15.29-1.81-14.23-.72-35.88.18-49.84.43-6.66,2.54-12.71,7.4-15.11,2.16-1.07,3.16-3.64,2.41-5.93-1.97-5.98-4.57-18.43-4.44-42.29.1-17.56-4.63-26.05-16.59-38.01-11.45-11.45-16.37-18.6-18.53-24.61-.99-2.75-4.03-4.17-6.8-3.25-2.59.86-8.3-2.4-11.94-6.53-1.78-2.01.18-4.71-7.42-12.67-13.28-13.91-33.03-36.68-64.31-60.26-22.26-16.78-61.28-42.9-99.64-26.97-38.37,15.93,62.43,39.34,60.08,65.62-2.34,26.29-81.04,44.18-81.04,44.18,35.08,87.36,18.97,180.27,16.08,193.86Z" fill="#3d3638" stroke-width="0"/>
<polygon points="1397.1 791.88 1407.23 822.47 1403.07 828.98 1339.09 826.26 1326.73 787.54 1397.1 791.88" fill="#d6d6d6" stroke-width="0"/>
<path d="M1366.72,818.37l-17.62-.49c-2.35-8.51-4.78-15.25-6.91-20.81l18.75,1.16c2.22,6.47,4.16,13.19,5.79,20.14Z" fill="#999" opacity=".4" stroke-width="0"/>
<path d="M1409.41,828.91c-1.04,1.37-3.41,3.58-7.98,3.58-.26,0-.53,0-.81-.02-4.52-.24-9.81-.5-15.41-.76-2.57-.11-5.22-.23-7.91-.34-14.26-.59-29.21-1.1-38.29-1.29l.17-7.62c8.65.18,22.62.65,36.25,1.2,2.7.11,5.38.23,8,.35,6.43.27,12.52.58,17.62.85.53.02,1.84.03,2.27-.55.41-.55.55-1.95-.03-3.58-2.68-7.71-7.6-21.64-10.45-28.27l7.01-3c2.79,6.5,7.33,19.24,10.65,28.77,1.37,3.94.96,7.94-1.08,10.66Z" fill="#000" stroke-width="0"/>
<rect x="1363.08" y="817.01" width="35.87" height="4.34" rx="2.17" ry="2.17" transform="translate(2732.28 1686.53) rotate(-177.98)" fill="#fff" stroke-width="0"/>
<rect x="1373.66" y="809.69" width="23.25" height="4.34" rx="2.17" ry="2.17" transform="translate(2741.09 1672.05) rotate(-177.98)" fill="#fff" stroke-width="0"/>
<rect x="1383.53" y="802.36" width="11.52" height="4.34" rx="2.17" ry="2.17" transform="translate(2749.35 1657.55) rotate(-177.98)" fill="#fff" stroke-width="0"/>
<rect x="1337.95" y="794.19" width="23.25" height="4.34" rx="2.17" ry="2.17" transform="translate(59.9 -93.74) rotate(4.07)" fill="#fff" stroke-width="0"/>
<rect x="1341.08" y="801.1" width="11.52" height="4.34" rx="2.17" ry="2.17" transform="translate(60.38 -93.53) rotate(4.07)" fill="#fff" stroke-width="0"/>
<path d="M1394.18,980.55l-7.62-.21c1.42-50.34-.26-79.95-3.64-114.08-1.22-12.17-3.09-23.81-5.62-34.88-.59-2.6-1.22-5.16-1.87-7.71,2.7.11,5.38.23,8,.35.62,2.53,1.22,5.1,1.78,7.69,2.36,10.88,4.13,22.15,5.29,33.78,3.41,34.44,5.12,64.31,3.69,115.06Z" fill="#000" stroke-width="0"/>
<path d="M1369.05,836.71c-.03,22.15-11.35,32.61-11.35,32.61-1.08-12.78-2.6-23.65-4.37-32.98l15.72.37Z" fill="#999" opacity=".4" stroke-width="0"/><path d="M1401.17,914.26s1.49,32.57-.03,56.79l104.45,3.79c-26.2-4.07-37.44-31.7-41.83-47.75-1.78-6.5-7.49-11.15-14.22-11.46-15.45-.73-41.39-1.83-48.37-1.36Z" fill="#000" opacity=".3" stroke-width="0"/>
<path d="M1503.46,775.27c-5.66,0-11.51-3.29-18.9-13.3l6.22-4.59c9.56,12.95,13.14,11.23,20.99,7.44l3.36,6.96c-4.08,1.97-7.83,3.49-11.67,3.49Z" fill="#000" stroke-width="0"/>
<path d="M1567.35,892.1c-2.7,1.26-7.61,4.8-8.33,17.08-.41,7.19-1.05,25.31-1.42,41.51.53,8.62,1.01,14.12,1.73,17.94,0,0-7.33,0-14.13.09-4.34.06-17.55-.09-17.55-.09,3.91-.06,7.23-8.48,8.21-17.09v-.12c.05-.3.08-.61.11-.91,1.81-9.31,2.36-42.98,2.45-54.38,0,0-1.45-8.7-6.28-11.59l35.5.04c.18,2.48.49,4.39.72,5.56.15.82-.27,1.61-1.02,1.96Z" fill="#000" opacity=".3" stroke-width="0"/>
<path d="M1397.23,854.66h47.75c5.94,0,10.81-4.69,11.07-10.62.73-17.16,11.32-29.18,31.62-29.54,0,0-7.55.74-15.25-22.26,0,0-12.89,11.02-43.3,11.02-9.09,0-17.84-.71-17.84-.71,3.26,8.01,4.2,11.6,6.03,17.64,6.38,21.04-22.63,19-22.63,19,.99,7.88,2.55,15.45,2.55,15.45Z" fill="#999" opacity=".4" stroke-width="0"/>
<path d="M1497.11,814.41s12.46-2.53,7.66-20.27c0,0,5.32,5.86,7.96,14.12,3.71,11.58-15.62,6.18-15.62,6.15Z" fill="#000" opacity=".3" stroke-width="0"/>
<path d="M1513.21,778.81l-2.86.89c-.69.21-.99,1.03-.59,1.63,3.07,4.6,14.71,20.51,25.44,14.45,0,0-2.05-3.26-2.8-5.39-.18-.53-.74-.8-1.29-.7-2.54.47-9.52.43-17.9-10.87Z" fill="#000" opacity=".3" stroke-width="0"/>
<path d="M1564.76,872.78c-.72-7.87-.91-21.89-1.18-27.69-.36-7.87-2.69-18.01-10.29-22.8,0,0-1.7,4.83-15.4,1.38,0,0,18.55,4.67,20.25,25,.21,2.49.64,10.89.61,17.08-.03,7.15-1.66,7.04-1.66,7.04h7.67Z" fill="#999" opacity=".4" stroke-width="0"/>
<path d="M1546.25,863.19l-.05,1.95c-.03,1.43-1.61,2.64-3.55,2.68-16.68.37-44.78.11-70.64-.21-.56-13.74-.2-24.16.12-26.67.88-7.02,4.71-10.02,12.76-10.02h.02c13.65,0,31.56,2.27,49.14,6.21,7.37,1.66,10.66,5.56,11.73,13.94.62,4.92.56,8.1.47,12.12Z" fill="#d6d6d6" stroke-width="0"/>
<path d="M1553.33,850.1c-.93-7.27-3.76-17.29-17.62-20.39-18.09-4.07-36.62-6.4-50.8-6.4h-.02c-15.05,0-19.36,9.08-20.32,16.69-1.02,8.1-2.74,87.72,23.44,117.4,6.75,7.65,14.84,11.53,24.04,11.53s15.13-5.54,17.14-16.95c1.98-11.18,3.7-36.24,3.09-55.72-.23-7.48-6.91-13.33-15.17-13.33l-44.16-.29c-.21-2.53-.4-5-.55-7.42,25.8.32,53.72.58,70.42.21,6.06-.14,10.89-4.6,11-10.14l.05-1.93c.09-4.17.17-7.77-.53-13.27ZM1542.65,867.82c-16.68.37-44.78.11-70.64-.21-.56-13.74-.2-24.16.12-26.67.88-7.02,4.71-10.02,12.76-10.02h.02c13.65,0,31.56,2.27,49.14,6.21,7.37,1.66,10.66,5.56,11.73,13.94.62,4.92.56,8.1.47,12.12l-.05,1.95c-.03,1.43-1.61,2.64-3.55,2.68Z" fill="#000" stroke-width="0"/>
<path d="M1537.39,862.77c1.29.03,2.4-.9,2.6-2.18.82-5.41,1.63-18.85-10.23-20.19-4.65-.53-10.95-1.46-15.27-2.13-2.65-.41-5.09,1.49-5.34,4.16-.55,5.81-1.41,13.83-1.84,17.83-.14,1.33.9,2.49,2.24,2.5,13.55.11,20.65-.18,27.85,0Z" fill="#999" opacity=".4" stroke-width="0"/>
<rect x="1507.3" y="861.53" width="35.87" height="4.34" rx="2.17" ry="2.17" transform="translate(3050.73 1726.93) rotate(179.98)" fill="#fff" stroke-width="0"/>
<rect x="1519.14" y="854.01" width="23.25" height="4.34" rx="2.17" ry="2.17" transform="translate(3061.8 1711.89) rotate(179.98)" fill="#fff" stroke-width="0"/>
<rect x="1530.27" y="846.49" width="11.52" height="4.34" rx="2.17" ry="2.17" transform="translate(3072.32 1696.86) rotate(179.98)" fill="#fff" stroke-width="0"/>
<rect x="1478.32" y="833.2" width="23.25" height="4.34" rx="2.17" ry="2.17" fill="#fff" stroke-width="0"/>
<rect x="1475.87" y="840.71" width="11.52" height="4.34" rx="2.17" ry="2.17" fill="#fff" stroke-width="0"/>
<path d="M1580.65,1001.9l-242.47-17.98.91-4.27c.86-4.06,20.75-100.4-15.89-191.64l-1.66-4.14,4.35-.99c29.38-6.69,76.57-23.68,78.1-40.81.87-9.7-20.19-21.26-37.1-30.55-18-9.88-32.21-17.69-31.7-27,.37-6.82,8.41-10.16,11.06-11.25,38.71-16.07,77.55,7.97,103.4,27.45,27.04,20.38,45.3,39.9,58.64,54.15,2.19,2.34,4.23,4.52,6.13,6.52,5.84,6.11,6.79,9.82,7.35,12.04.08.31.19.73.25.86,2.86,3.22,4.3,5.62,7.98,5.26,4.67-1.45,9.76,1.05,11.41,5.63,2.17,6.02,7.61,13.17,17.64,23.21,12.09,12.09,17.82,21.26,17.71,40.73-.14,24.11,2.6,36.08,4.25,41.07,1.36,4.12-.51,8.65-4.34,10.54-4.06,2-5.06,8.34-5.29,11.94-.54,8.34-2.16,33.71-.2,49.12,1.33,10.48,4.22,11.22,7.57,12.08,2.02.52,3.45,2.26,3.55,4.34v.22s0,.22,0,.22l-1.63,23.27ZM1347.36,976.97l226.23,16.78.93-13.24c-6.57-2.45-9.6-7.53-10.9-17.77-1.84-14.46-.79-35.78.16-50.57.59-9.18,3.88-15.5,9.52-18.28.43-.21.64-.81.47-1.33-2.19-6.63-4.76-19.56-4.63-43.5.1-16.97-4.48-24.3-15.48-35.3-11.01-11.01-16.82-18.79-19.42-26.01-.29-.79-1.16-1.06-2.02-.93-8.36,1.35-12.59-3.75-16-7.62-1.18-1.34-1.54-2.75-1.83-3.89-.43-1.69-1.02-4-5.49-8.67-1.92-2.01-3.98-4.21-6.18-6.57-13.15-14.05-31.15-33.29-57.67-53.27-24.35-18.35-60.78-41.06-95.89-26.49-4.62,1.92-6.32,3.69-6.37,4.63-.25,4.52,16.61,13.78,27.76,19.91,20.81,11.43,42.33,23.25,41.02,37.9-2.27,25.41-61.76,42.07-79.69,46.53,31.55,82.37,19.1,167.62,15.48,187.69Z" fill="#000" stroke-width="0"/>
</g>
</svg>