<?xml version="1.0" encoding="UTF-8"?>
<svg id="a" xmlns="http://www.w3.org/2000/svg" width="1622.14" height="1047.4" viewBox="0 0 1622.14 1047.4">
    <g id="b">
        <path d="M511.99,646.51c-70.18,35.3-108.97,97.02-115.3,183.46-5.32,72.79,14.51,143.19,21.03,166.32.77,2.75.18,5.6-1.63,7.82-1.8,2.21-4.47,3.35-7.32,3.15-49.47-3.67-92.13-9.27-126.67-14.98-34.54-5.72-60.96-11.55-77.93-15.71-11.67-2.86-21.03-11.79-24.42-23.3l-18.79-63.76c-1.35-4.56-.32-9.45,2.73-13.1l7.92-9.45c5.98-7.14,8.57-16.5,7.1-25.7-11.04-69.32-17.1-133.8-19.19-158.31-1.5-17.65,2.46-35.07,11.46-50.39,24.13-41.05,65.63-102.87,76.92-119.06,13.35,4.41,73.79,24.62,133.81,48.55,121.72,48.52,136.09,70.05,136.62,77.05.08,1.02.31,4.08-6.33,7.42Z" fill="#000" stroke-width="0"/>
        <path d="M517.3,647.55c-70.18,35.3-108.97,97.02-115.3,183.46-5.32,72.79,14.51,143.19,21.03,166.32.77,2.75.18,5.6-1.63,7.82-1.8,2.21-4.47,3.35-7.32,3.15-49.47-3.67-92.13-9.27-126.67-14.98-34.54-5.72-60.96-11.55-77.93-15.71-11.67-2.86-21.03-11.79-24.42-23.3l-18.79-63.76c-1.35-4.56-.32-9.45,2.73-13.1l7.92-9.45c5.98-7.14,8.57-16.5,7.1-25.7-11.04-69.32-17.1-133.8-19.19-158.31-1.5-17.65,2.46-35.07,11.46-50.39,24.13-41.05,65.63-102.87,76.92-119.06,13.35,4.41,73.79,24.62,133.81,48.55,121.72,48.52,136.09,70.05,136.62,77.05.08,1.02.31,4.08-6.33,7.42Z" fill="#3d3638" stroke-width="0"/>
        <path d="M531.34,639.55c-.84-11.08-15.58-24.02-46.42-40.74-23.14-12.55-55.13-26.99-95.06-42.91-67.89-27.07-136.28-49.39-136.97-49.61l-2.69-.87-1.65,2.31c-8.14,11.42-53.28,78.35-78.92,121.96-9.82,16.7-14.15,35.71-12.5,54.96,2.09,24.6,8.16,89.31,19.24,158.87,1.12,6.99-.84,14.1-5.38,19.52l-7.92,9.45c-4.73,5.63-6.31,13.21-4.23,20.26l18.79,63.76c2.09,7.07,6,13.35,11.19,18.3,5.18,4.95,11.64,8.57,18.81,10.33,34.2,8.36,106.41,23.5,205.88,30.88.41.03.81.04,1.2.04,4.89,0,9.56-2.2,12.68-6.02,3.38-4.13,4.53-9.66,3.08-14.79-47.67-169.24-16.45-287.08,90.31-340.78,9.31-4.68,10.88-10.69,10.56-14.91ZM517.3,647.55c-70.18,35.3-108.97,97.02-115.3,183.46-5.32,72.79,14.51,143.19,21.03,166.32.77,2.75.18,5.6-1.63,7.82-1.8,2.21-4.47,3.35-7.32,3.15-49.47-3.67-92.13-9.27-126.67-14.98-34.54-5.72-60.96-11.55-77.93-15.71-11.67-2.86-21.03-11.79-24.42-23.3l-18.79-63.76c-1.35-4.56-.32-9.45,2.73-13.1l7.92-9.45c5.98-7.14,8.57-16.5,7.1-25.7-11.04-69.32-17.1-133.8-19.19-158.31-1.5-17.65,2.46-35.07,11.46-50.39,24.13-41.05,65.63-102.87,76.92-119.06,13.35,4.41,73.79,24.62,133.81,48.55,121.72,48.52,136.09,70.05,136.62,77.05.08,1.02.31,4.08-6.33,7.42Z" fill="#000" stroke-width="0"/>
        <path d="M433.43,594.28s-22.03,20.36-42.15,37.6c-9.16,7.84-19.78,13.75-31.25,17.45-24.68,7.97-74.4,20.06-155.83,23.46-6.5.27-11.61-2.75-17.19-7.16l-17-13.56c-2.9-2.32-3.85-6.33-2.25-9.68,5.59-11.71,23.95-44.74,83.93-132.43,0,0,107.92,40.15,181.75,84.32Z" fill="#960804" stroke-width="0"/>
        <path d="M203.41,676.67c-7.58,0-13.51-3.83-18.8-8l-17.02-13.57c-4.35-3.47-5.71-9.37-3.33-14.37,5.8-12.14,24.45-45.55,84.23-132.95l1.71-2.49,2.83,1.05c1.08.4,109.1,40.78,182.38,84.63l4.43,2.65-3.79,3.5c-.22.2-22.31,20.61-42.26,37.7-9.55,8.17-20.51,14.29-32.58,18.19-22.71,7.33-73.28,20.15-156.86,23.64-.32.01-.63.02-.95.02ZM253.16,514.65c-58.13,85.1-76.27,117.58-81.92,129.41-.83,1.73-.35,3.78,1.17,4.99l17,13.56c5.14,4.06,9.36,6.52,14.62,6.32,82.67-3.45,132.48-16.06,154.81-23.27,11.09-3.58,21.16-9.2,29.92-16.71,14.91-12.77,31.04-27.41,38.22-33.99-65.78-38.51-156.72-73.8-173.82-80.31Z" fill="#000" stroke-width="0"/>
        <path d="M358.51,570.73l-32.28,34.45c-6.15,6.55-14.04,11.24-22.74,13.5-50.84,13.18-87.29,18.81-98.36,20.35-3.34.47-6.73.4-10.04-.24-5.42-1.07-10.31-2.89-10.31-2.89,0,0,4.93-9.4,17.12-29.55,10.56.37,47.4.55,83.29-12.37,7.11-2.56,13.69-6.34,19.42-11.29,3.49-3,7.52-6.88,11.58-11.65,0,0-36.36-20-72.94-29.49,0,0,4.9-7.6,8.44-12.89,0,0,41.83,13.3,106.83,42.07Z" fill="#800402" stroke-width="0"/>
        <path d="M212.66,598.63c21.17-31.6,33.93-49.47,33.93-49.47,28.01,7.27,55.83,22.57,55.83,22.57-3.1,3.64-6.19,6.62-8.86,8.92-4.38,3.78-9.42,6.68-14.86,8.64-32.51,11.7-66.04,9.34-66.04,9.34Z" fill="#d6d6d6" stroke-width="0"/>
        <path d="M171.78,690.09c30.7-1.57,99.59,4.12,132.08,6.68,15.27,1.2,25.57,16.1,21.35,30.83-7.8,27.21-22.53,70.52-47.13,115.65-5.17,9.49-14.71,15.8-25.47,16.79-8.57.78-49.77,1.42-60.35,2.65,0,0-1.36,4.21-4.48,8.01l202.77,8.6c-12.29-127.03,59.18-191.83,59.18-191.83-96.09-2.59-188.82-4.86-237.8-4.88-15.01,0-20.8-1.09-30.03-7.97-6.14-4.57-10.08-8.37-10.08-8.37-2.05,11.63-.04,23.85-.04,23.85Z" fill="#000" opacity=".3" stroke-width="0"/>
        <path d="M436.42,612.87c19.46,9.77,58.49,36.05,58.49,36.05-24.19,12.31-40.11,29.68-40.11,29.68-101.97-2.6-166.49-1.45-166.49-1.45,49.21-6.8,57.01-11.46,77.04-16.36,12.09-2.96,23.5-8.21,33.5-15.62,18.31-13.57,37.58-32.3,37.58-32.3Z" fill="#999" opacity=".4" stroke-width="0"/>
        <path d="M173.67,698.2s14.25,132.05,19.68,159.01c0,0,38.8-3.48,58.34-5.25,11.06-1,16.69-7.79,20.86-15.2,10.97-19.47,30.74-63.98,45.15-111.05,3.09-10.09-4.92-20.31-15.42-21.33-25.17-2.45-72.75-6.19-128.61-6.19Z" fill="#000" opacity=".7" stroke-width="0"/>
        <path d="M179.09,645.74l2.04-3.42c11.9,4.6,18.65,4.71,26.55,4.06,10.61-.87,64.51-11.05,102.7-21.88,12.12-3.44,26.78-16.47,36.37-27.33,6.65-7.53,19.73-23.16,19.73-23.16,16.11,6.15,46.33,22.26,46.33,22.26-3.99,4.17-17.89,16.32-28.16,25.2-8.56,7.39-18.44,13.14-29.18,16.66-55.23,18.07-132.79,21.8-150.26,22.42-2.37.08-4.7-.5-6.74-1.7-10.4-6.16-19.38-13.1-19.38-13.1Z" fill="#c10402" stroke-width="0"/>
        <rect x="172.41" y="651.84" width="33.32" height="4.34" rx="1.63" ry="1.63" transform="translate(440.39 21.31) rotate(37.79)" fill="#f31302" stroke-width="0"/>
        <rect x="177.28" y="641.86" width="23.25" height="4.34" rx="2.01" ry="2.01" transform="translate(434.24 19.31) rotate(37.79)" fill="#f31302" stroke-width="0"/>
        <rect x="182.65" y="631.19" width="11.52" height="4.34" rx="1.63" ry="1.63" transform="translate(427.6 17.38) rotate(37.79)" fill="#f31302" stroke-width="0"/>
        <rect x="382.57" y="586.4" width="35.87" height="4.34" rx="1.63" ry="1.63" transform="translate(450.57 1298.72) rotate(-149.8)" fill="#f31302" stroke-width="0"/>
        <rect x="388.57" y="594.91" width="23.25" height="4.34" rx="2.01" ry="2.01" transform="translate(445.7 1314.44) rotate(-149.8)" fill="#f31302" stroke-width="0"/>
        <rect x="394.33" y="603.94" width="11.52" height="4.34" rx="2.01" ry="2.01" transform="translate(440.96 1331.22) rotate(-149.8)" fill="#f31302" stroke-width="0"/>
        <rect x="271.97" y="566.21" width="25" height="3.03" rx="1.51" ry="1.51" transform="translate(303.06 1202.45) rotate(-155.06)" fill="#fff" stroke-width="0"/>
        <rect x="276.7" y="572.14" width="16.21" height="3.03" rx="1.14" ry="1.14" transform="translate(301.18 1213.9) rotate(-155.06)" fill="#fff" stroke-width="0"/>
        <path d="M228.98,581.48c8.39-12.51,13.44-19.59,13.44-19.59,11.09,2.88,22.11,8.94,22.11,8.94-1.23,1.44-2.45,2.62-3.51,3.53-1.73,1.5-3.73,2.65-5.89,3.42-12.87,4.63-26.16,3.7-26.16,3.7Z" fill="#fff" stroke-width="0"/>
        <rect x="328.78" y="562.87" width="35.87" height="4.34" rx="2.01" ry="2.01" transform="translate(362.11 1227.8) rotate(-149.8)" fill="#bc0402" stroke-width="0"/>
        <rect x="334.77" y="571.39" width="23.25" height="4.34" rx="2.01" ry="2.01" transform="translate(357.24 1243.52) rotate(-149.8)" fill="#bc0402" stroke-width="0"/>
        <rect x="340.53" y="580.42" width="11.52" height="4.34" rx="2.01" ry="2.01" transform="translate(352.5 1260.3) rotate(-149.8)" fill="#bc0402" stroke-width="0"/>
        <path d="M192.57,946.61c4.69,16.36,10.5,22.62,34.61,26.84,16.2,2.83,69.62,12.87,166.8,24.38,5.75.68,20.81,4.71,15.2-9.7-6.96-17.88-12.67-63.77-14.12-78.98,0,0-75.1-4.34-217.89-20.27,0,0,12.45,47.5,15.38,57.73Z" fill="#000" opacity=".3" stroke-width="0"/>
        <path d="M177.19,884s2.5-5.21,7.06-9.77c0,0,94.66,6.22,207.4,10.02,0,0,1.08,9.25,2.7,19.66,0,0-132.47-9.23-217.16-19.91Z" fill="#999" opacity=".4" stroke-width="0"/>
    </g>
</svg>