<?xml version="1.0" encoding="UTF-8"?>
<svg id="a" xmlns="http://www.w3.org/2000/svg" width="1622.14" height="1047.4" viewBox="0 0 1622.14 1047.4">
<g id="b">
<path d="M511.99,646.51c-70.18,35.3-108.97,97.02-115.3,183.46-5.32,72.79,14.51,143.19,21.03,166.32.77,2.75.18,5.6-1.63,7.82-1.8,2.21-4.47,3.35-7.32,3.15-49.47-3.67-92.13-9.27-126.67-14.98-34.54-5.72-60.96-11.55-77.93-15.71-11.67-2.86-21.03-11.79-24.42-23.3l-18.79-63.76c-1.35-4.56-.32-9.45,2.73-13.1l7.92-9.45c5.98-7.14,8.57-16.5,7.1-25.7-11.04-69.32-17.1-133.8-19.19-158.31-1.5-17.65,2.46-35.07,11.46-50.39,24.13-41.05,65.63-102.87,76.92-119.06,13.35,4.41,73.79,24.62,133.81,48.55,121.72,48.52,136.09,70.05,136.62,77.05.08,1.02.31,4.08-6.33,7.42Z" fill="#000" stroke-width="0"/>
<path d="M517.3,647.55c-70.18,35.3-108.97,97.02-115.3,183.46-5.32,72.79,14.51,143.19,21.03,166.32.77,2.75.18,5.6-1.63,7.82-1.8,2.21-4.47,3.35-7.32,3.15-49.47-3.67-92.13-9.27-126.67-14.98-34.54-5.72-60.96-11.55-77.93-15.71-11.67-2.86-21.03-11.79-24.42-23.3l-18.79-63.76c-1.35-4.56-.32-9.45,2.73-13.1l7.92-9.45c5.98-7.14,8.57-16.5,7.1-25.7-11.04-69.32-17.1-133.8-19.19-158.31-1.5-17.65,2.46-35.07,11.46-50.39,24.13-41.05,65.63-102.87,76.92-119.06,13.35,4.41,73.79,24.62,133.81,48.55,121.72,48.52,136.09,70.05,136.62,77.05.08,1.02.31,4.08-6.33,7.42Z" fill="#3d3638" stroke-width="0"/>
<path d="M531.34,639.55c-.84-11.08-15.58-24.02-46.42-40.74-23.14-12.55-55.13-26.99-95.06-42.91-67.89-27.07-136.28-49.39-136.97-49.61l-2.69-.87-1.65,2.31c-8.14,11.42-53.28,78.35-78.92,121.96-9.82,16.7-14.15,35.71-12.5,54.96,2.09,24.6,8.16,89.31,19.24,158.87,1.12,6.99-.84,14.1-5.38,19.52l-7.92,9.45c-4.73,5.63-6.31,13.21-4.23,20.26l18.79,63.76c2.09,7.07,6,13.35,11.19,18.3,5.18,4.95,11.64,8.57,18.81,10.33,34.2,8.36,106.41,23.5,205.88,30.88.41.03.81.04,1.2.04,4.89,0,9.56-2.2,12.68-6.02,3.38-4.13,4.53-9.66,3.08-14.79-47.67-169.24-16.45-287.08,90.31-340.78,9.31-4.68,10.88-10.69,10.56-14.91ZM517.3,647.55c-70.18,35.3-108.97,97.02-115.3,183.46-5.32,72.79,14.51,143.19,21.03,166.32.77,2.75.18,5.6-1.63,7.82-1.8,2.21-4.47,3.35-7.32,3.15-49.47-3.67-92.13-9.27-126.67-14.98-34.54-5.72-60.96-11.55-77.93-15.71-11.67-2.86-21.03-11.79-24.42-23.3l-18.79-63.76c-1.35-4.56-.32-9.45,2.73-13.1l7.92-9.45c5.98-7.14,8.57-16.5,7.1-25.7-11.04-69.32-17.1-133.8-19.19-158.31-1.5-17.65,2.46-35.07,11.46-50.39,24.13-41.05,65.63-102.87,76.92-119.06,13.35,4.41,73.79,24.62,133.81,48.55,121.72,48.52,136.09,70.05,136.62,77.05.08,1.02.31,4.08-6.33,7.42Z" fill="#000" stroke-width="0"/>
<path d="M433.43,594.28s-22.03,20.36-42.15,37.6c-9.16,7.84-19.78,13.75-31.25,17.45-24.68,7.97-74.4,20.06-155.83,23.46-6.5.27-11.61-2.75-17.19-7.16l-17-13.56c-2.9-2.32-3.85-6.33-2.25-9.68,5.59-11.71,23.95-44.74,83.93-132.43,0,0,107.92,40.15,181.75,84.32Z" fill="#960804" stroke-width="0"/>
<path d="M203.41,676.67c-7.58,0-13.51-3.83-18.8-8l-17.02-13.57c-4.35-3.47-5.71-9.37-3.33-14.37,5.8-12.14,24.45-45.55,84.23-132.95l1.71-2.49,2.83,1.05c1.08.4,109.1,40.78,182.38,84.63l4.43,2.65-3.79,3.5c-.22.2-22.31,20.61-42.26,37.7-9.55,8.17-20.51,14.29-32.58,18.19-22.71,7.33-73.28,20.15-156.86,23.64-.32.01-.63.02-.95.02ZM253.16,514.65c-58.13,85.1-76.27,117.58-81.92,129.41-.83,1.73-.35,3.78,1.17,4.99l17,13.56c5.14,4.06,9.36,6.52,14.62,6.32,82.67-3.45,132.48-16.06,154.81-23.27,11.09-3.58,21.16-9.2,29.92-16.71,14.91-12.77,31.04-27.41,38.22-33.99-65.78-38.51-156.72-73.8-173.82-80.31Z" fill="#000" stroke-width="0"/>
<path d="M358.51,570.73l-32.28,34.45c-6.15,6.55-14.04,11.24-22.74,13.5-50.84,13.18-87.29,18.81-98.36,20.35-3.34.47-6.73.4-10.04-.24-5.42-1.07-10.31-2.89-10.31-2.89,0,0,4.93-9.4,17.12-29.55,10.56.37,47.4.55,83.29-12.37,7.11-2.56,13.69-6.34,19.42-11.29,3.49-3,7.52-6.88,11.58-11.65,0,0-36.36-20-72.94-29.49,0,0,4.9-7.6,8.44-12.89,0,0,41.83,13.3,106.83,42.07Z" fill="#800402" stroke-width="0"/>
<path d="M212.66,598.63c21.17-31.6,33.93-49.47,33.93-49.47,28.01,7.27,55.83,22.57,55.83,22.57-3.1,3.64-6.19,6.62-8.86,8.92-4.38,3.78-9.42,6.68-14.86,8.64-32.51,11.7-66.04,9.34-66.04,9.34Z" fill="#d6d6d6" stroke-width="0"/>
<path d="M171.78,690.09c30.7-1.57,99.59,4.12,132.08,6.68,15.27,1.2,25.57,16.1,21.35,30.83-7.8,27.21-22.53,70.52-47.13,115.65-5.17,9.49-14.71,15.8-25.47,16.79-8.57.78-49.77,1.42-60.35,2.65,0,0-1.36,4.21-4.48,8.01l202.77,8.6c-12.29-127.03,59.18-191.83,59.18-191.83-96.09-2.59-188.82-4.86-237.8-4.88-15.01,0-20.8-1.09-30.03-7.97-6.14-4.57-10.08-8.37-10.08-8.37-2.05,11.63-.04,23.85-.04,23.85Z" fill="#000" opacity=".3" stroke-width="0"/>
<path d="M436.42,612.87c19.46,9.77,58.49,36.05,58.49,36.05-24.19,12.31-40.11,29.68-40.11,29.68-101.97-2.6-166.49-1.45-166.49-1.45,49.21-6.8,57.01-11.46,77.04-16.36,12.09-2.96,23.5-8.21,33.5-15.62,18.31-13.57,37.58-32.3,37.58-32.3Z" fill="#999" opacity=".4" stroke-width="0"/>
<path d="M173.67,698.2s14.25,132.05,19.68,159.01c0,0,38.8-3.48,58.34-5.25,11.06-1,16.69-7.79,20.86-15.2,10.97-19.47,30.74-63.98,45.15-111.05,3.09-10.09-4.92-20.31-15.42-21.33-25.17-2.45-72.75-6.19-128.61-6.19Z" fill="#000" opacity=".7" stroke-width="0"/>
<path d="M179.09,645.74l2.04-3.42c11.9,4.6,18.65,4.71,26.55,4.06,10.61-.87,64.51-11.05,102.7-21.88,12.12-3.44,26.78-16.47,36.37-27.33,6.65-7.53,19.73-23.16,19.73-23.16,16.11,6.15,46.33,22.26,46.33,22.26-3.99,4.17-17.89,16.32-28.16,25.2-8.56,7.39-18.44,13.14-29.18,16.66-55.23,18.07-132.79,21.8-150.26,22.42-2.37.08-4.7-.5-6.74-1.7-10.4-6.16-19.38-13.1-19.38-13.1Z" fill="#c10402" stroke-width="0"/>
<rect x="172.41" y="651.84" width="33.32" height="4.34" rx="1.63" ry="1.63" transform="translate(440.39 21.31) rotate(37.79)" fill="#f31302" stroke-width="0"/>
<rect x="177.28" y="641.86" width="23.25" height="4.34" rx="2.01" ry="2.01" transform="translate(434.24 19.31) rotate(37.79)" fill="#f31302" stroke-width="0"/>
<rect x="182.65" y="631.19" width="11.52" height="4.34" rx="1.63" ry="1.63" transform="translate(427.6 17.38) rotate(37.79)" fill="#f31302" stroke-width="0"/>
<rect x="382.57" y="586.4" width="35.87" height="4.34" rx="1.63" ry="1.63" transform="translate(450.57 1298.72) rotate(-149.8)" fill="#f31302" stroke-width="0"/>
<rect x="388.57" y="594.91" width="23.25" height="4.34" rx="2.01" ry="2.01" transform="translate(445.7 1314.44) rotate(-149.8)" fill="#f31302" stroke-width="0"/>
<rect x="394.33" y="603.94" width="11.52" height="4.34" rx="2.01" ry="2.01" transform="translate(440.96 1331.22) rotate(-149.8)" fill="#f31302" stroke-width="0"/>
<rect x="271.97" y="566.21" width="25" height="3.03" rx="1.51" ry="1.51" transform="translate(303.06 1202.45) rotate(-155.06)" fill="#fff" stroke-width="0"/>
<rect x="276.7" y="572.14" width="16.21" height="3.03" rx="1.14" ry="1.14" transform="translate(301.18 1213.9) rotate(-155.06)" fill="#fff" stroke-width="0"/>
<path d="M228.98,581.48c8.39-12.51,13.44-19.59,13.44-19.59,11.09,2.88,22.11,8.94,22.11,8.94-1.23,1.44-2.45,2.62-3.51,3.53-1.73,1.5-3.73,2.65-5.89,3.42-12.87,4.63-26.16,3.7-26.16,3.7Z" fill="#fff" stroke-width="0"/>
<rect x="328.78" y="562.87" width="35.87" height="4.34" rx="2.01" ry="2.01" transform="translate(362.11 1227.8) rotate(-149.8)" fill="#bc0402" stroke-width="0"/>
<rect x="334.77" y="571.39" width="23.25" height="4.34" rx="2.01" ry="2.01" transform="translate(357.24 1243.52) rotate(-149.8)" fill="#bc0402" stroke-width="0"/>
<rect x="340.53" y="580.42" width="11.52" height="4.34" rx="2.01" ry="2.01" transform="translate(352.5 1260.3) rotate(-149.8)" fill="#bc0402" stroke-width="0"/>
<path d="M192.57,946.61c4.69,16.36,10.5,22.62,34.61,26.84,16.2,2.83,69.62,12.87,166.8,24.38,5.75.68,20.81,4.71,15.2-9.7-6.96-17.88-12.67-63.77-14.12-78.98,0,0-75.1-4.34-217.89-20.27,0,0,12.45,47.5,15.38,57.73Z" fill="#000" opacity=".3" stroke-width="0"/>
<path d="M177.19,884s2.5-5.21,7.06-9.77c0,0,94.66,6.22,207.4,10.02,0,0,1.08,9.25,2.7,19.66,0,0-132.47-9.23-217.16-19.91Z" fill="#999" opacity=".4" stroke-width="0"/>
</g>
<g id="c">
<path d="M199.7,647.56c-2.42,1.57-.89,1.65-2.12,2.48-.92.62-1.55.71-6.09,1.65-5.53,1.15-4.79-1.46-3.5-2.56,2.86-2.42,4.71-3.47,5.58-3.94,1.31-.71,1.99-.12,3.57-1.22,37.96-26.38,57.66-45.92,61.3-50.82.77-1.03,1.43-3.59.45-4.04-.7-.32-.15-4.92,5.25-7.14,3.95-1.62,6.68-1.47,8.25.42s2.53,2.35,1.62,4.33,2.95,1.33,1.31,2.27c-2.57,1.48-5,2.24-5.54,4.74-6.24,29.01,3.17,52.15,7.47,54.88,4.99,3.17-3.59,4.08-6.69,4.06-6.03-.03-6.17-.67-14.28-1.42-21.93-2.04-40.62,5.14-44.88,12.7-1.21,2.15-.19,2.52-2.33,3.16-3.47,1.03-4.19,1.24-5.87,1.66-1.22.3-3.12.67-3.21-.36-.03-.35-.04-.58.02-1.28.12-1.47,1.17-1.28,2.79-5.51,13.38-34.76,11.72-70.6,12.17-80.47.04-.83.42-1.6,1.06-2.13.88-.72,2.29-1.79,3.96-2.71,3.77-2.08,4.84-.72,7.7,1.17,5.47,3.61,35.65,7.88,61.09,8.95,6.18.26,10.89,4.59,3.27,4.67s-44.24-1.98-66.02-5.91c-3.11-.56-3.41-1.14-3.47,2.22-.05,3.09.31,43.41-8.76,67.65-.88,2.34,11.88-10.55,48.67-9.56.55.01.96-.52.77-1.04-1.87-5.25-7.7-17.63-6.23-39.4.02-.32-.33-.52-.58-.33-6.01,4.63-24.96,22.23-56.74,42.8Z" fill="#ffd515" stroke-width="0"/>
<path d="M229.15,667.96c1.76-.33,2.48-.85,8.18-1.24,2.44-.17,1.72-2.29,1.15-3.27-.18-.3-.63-.79-1.5-1.5-1.49-1.23-3.07-1.12-4.75-.18s-2.69,1.59-4.6,2.93c-1.76,1.23-2.46,4.01,1.52,3.27Z" fill="#ffd515" stroke-width="0"/>
<path d="M244.15,667.48c1.8-.26,2.56-.79,8.35-.92,2.48-.06,1.88-2.38,1.36-3.47-.16-.33-.59-.88-1.42-1.7-1.43-1.41-3.04-1.37-4.79-.44s-2.81,1.58-4.83,2.93c-1.85,1.24-2.74,4.2,1.33,3.61Z" fill="#ffd515" stroke-width="0"/>
<path d="M287.76,564.75c-.36-1.84-.71-2.53.83-2.93,1.9-.5,2.75-1.35,3.77-2.22s2.43-.9,3.67-.15,1.83,1.21,1.81,3.63c-.02,2.28-.04,15.6-.69,21.45,0,0,3.81-.29,3.48,3.06,0,0,.58.2.76.05.98-.82,24.94-22.81,26.99-25.98.56-.87.63-1.23.54-2.12-.12-1.21.33-1.63,1.41-1.73,2.91-.28,3.91-1.5,5.12-1.82s3.2-.44,3.07,2.06c-.06,1.25-1.73,36.36-1.46,38.17s1.19,10.71,1.07,12.31.85.89.8,1.78-.2,6.89-.27,8.03c-.16,2.74,4.08,2.25,3.71,5.84-.27,2.7-.39,4.21-.43,4.79-.01.16-.15.27-.31.26-3.13-.3-2.59-.76-12.41-2.47-.15-.03-.26-.15-.26-.3,0-1.02-.08-4.72-.04-6.02.06-1.95.12-7.14.14-8.8.21-19.04-35.19-13.77-46.43-4.98-.81.63-9.27,6.3,2.65,9.19,20.93,5.08,43.81,5.16,47.35,5.65s1.71,3.17,1.08,3.85-39.97-2.08-46.82-3.14-6.97-1.84-10.98-3.37c-10.77-4.12-6.5-10.81,7.86-17.67,6.7-3.2,22.27-9.89,39.12-6.5,5.46,1.1,5.71,2.54,5.32-2-.55-6.4.49-15.44.42-18.65s.48-4.16-4.15.91c-2.62,2.87-15.8,13.92-22.87,20.35-3.38,3.08-21.25,8.67-18.25,6.41,1.99-1.5,1.95-3.18,2.22-5.95.75-7.56,4.71-18.1,2.18-30.99Z" fill="#ffd515" stroke-width="0"/>
<path d="M405.21,702.26c1.81-.17,2.61-.69,8.35-.44,2.46.11,2.1-2.49,1.7-3.72-.12-.38-.49-1.01-1.24-1.96-1.27-1.64-2.87-1.71-4.7-.81s-2.94,1.54-5.07,2.88c-1.96,1.23-3.13,4.43.95,4.05Z" fill="#ffd515" stroke-width="0"/>
<path d="M359.22,597.67c-.15-1.63-.6-2.23.97-2.48,1.94-.3,2.84-.98,3.91-1.66s2.49-.61,3.71.12,1.79,1.17,1.67,3.26c-.11,1.87.32,20.2-.43,26.35-.06.47.31.88.78.87.24,0,.51-.02.75-.05.4-.04.78-.19,1.11-.42,19.15-13.96,22.59-19.18,24.78-21.77.48-.57,2.29-2.85,3-3.76.2-.25.33-.54.4-.85.45-1.91,1-2.11,2.02-2.13,2.59-.04,4.86-.86,6.22-1.03.31-.04.62.1.81.35l.9,1.18c.24.32.36.7.32,1.1-.5,5.74-3.76,48.03-3.86,48.95-.32,2.82,4.06,2.07,3.54,5.16-.39,2.32.32,7.66.17,7.64-3.15-.47-4.29-.27-13.55-1.25-.15-.02-.26-.15-.25-.28.06-.89.13-4.09.23-5.21.15-1.68.35-6.42.37-7.86.22-14.26-26.58-20.48-45.43-11.41-3.17,1.53-5.78,5.8,3.07,9.22,11.99,4.63,24.6,5.75,48.25,7.43,3.61.26.97,3.55.3,4.09s-31-2.51-38.23-3.47c-16.13-2.13-19.62-4.33-22.53-6.14-9.79-6.1-2.71-12.16,12.11-17.11,6.92-2.31,15.78-5.03,32.71-1.16,6.71,1.53,10.62,4.33,10.62,4.33.62-12.13,1.31-16.44,1.38-19.23,0,0-2.02,2.27-6.93,6.34-2.58,2.14-13.14,10.4-20.58,15.64-1.06.75-2.33,1.13-3.62,1.11l-6.57-.1c-.74-.01-1.36-.53-1.51-1.26-.66-3.2-.7-9.41-.35-11.47,1.09-6.49.82-10.84-.3-23.04Z" fill="#ffd515" stroke-width="0"/>
<path d="M345.93,569.14c.23-3.6.01-4.07,3.41-6.03s5.65-2.21,6.5-.38.76,3.38-.48,6.7c-.89,2.36-4.46,21.78-22.48,39.8,0,0,14.85-5.43,31.63.27,8.5,2.89,5.43-1.85,4.01-5.92-2.23-6.42-6.72-21.47-7.39-23.95-.4-1.48-.26-1.99,1.41-2.72,1.52-.67,2.26-.94,5.25-1.59,2.48-.54,1.82.84,3.96,3.5,5.71,7.12,16.25,27.91,14.5,35.22-.9,3.76-8.06,10.64-11.53,8.32s-.9-3.22-2.43-4.5c-7.35-6.14-29.83-6.84-34.52-5.89s-5.09,2.08-15.92,3c-1.99.17-6.01-.46-2.1-3.05,15.49-10.25,25.92-38.79,26.17-42.77Z" fill="#ffd515" stroke-width="0"/>
<path d="M341.2,623.89c2.91.28,16.62,1.25,19.27,1.38s-4.35,3.97-6.73,3.9-12.78-.49-14.98-1.1-.04-4.42,2.44-4.18Z" fill="#ffd515" stroke-width="0"/>
<path d="M288.91,601.56c-.48,2.54-.16,13.72-.07,15.33s-8.06,2.09-11.18,2.08c-5.5-.01-11.07,2.65-18.29,5.23-10.63,3.79-17.72,12.48-3.25,13.35,18.8,1.14,31.04,1.63,38.27,1.95s5.66,1.92,2.05,3.49c-7.16,3.12-33.69,9.76-36.68,11.25-3.89,1.94-4.46,3.83-2.64,3.97,3.21.26,39.51,2.37,43.33,2.56s2.85,1.38,4.9,1.48,4.72.19,7.07-.07c2.86-.32,2.64-1.4,2.33-2.9-.39-1.89-1.34-2.36-2.76-2.46-2.32-.17-1.8.38-4.05.15-1.77-.18-9.58-1.14-33.91-2.99,0,0,26.78-7.51,32.44-11.03,3.18-1.98,3.44-2.64,1.84-5.53-.48-.87-1.17-1.62-3.65-1.84-10.07-.87-38.16-1.96-42.15-2.44-7.24-.87-5.31-2.59-.72-5.21,14.37-8.21,32.75-9.01,28.48,7.28-.34,1.3,11.4,3.07,11.41,1.52.12-11.98-4.25-13.63-2.69-39.79.24-4.04-9.47,1.36-10.08,4.63Z" fill="#ffd515" stroke-width="0"/>
<path d="M430.17,702.08c2.07,1.31,2.6,5.89.54,6.14s-5.31-.81-7.33.13c-1.07.5-2.48.62-3.5-.33-1.02-.94-1.6-2.71.19-3.74,1.79-1.02,8.03-3.52,10.11-2.21Z" fill="#ffd515" stroke-width="0"/>
<path d="M304.23,636.07c-.71-.29-.73-.99.5-1.82s1.82-1.43,2.48-1.93c.96-.72,2.19-.44,3.53-.47s23.44-.75,29.99,7.32c13.38,16.48-13.09,28.96-17.77,31.63-.83.47-1.6.89-2.97,1.3-.24.07-.25.4-.02.48,8.72,2.7,24.71,6.24,38.18,9.08.2.04.3-.23.12-.33-6.21-3.54-33.15-14.86-42.38-24.33-1.43-1.46-.86-2.37.84-3.15s2.67-1.18,4.69-2.16,2.89-.27,4.56,1.82c10.27,12.81,59.27,32.25,61.89,33.21s1.86.45,2.77,2.28,1.8,3.91-2.22,3.68c-2.29-.13-16.65-.68-18.43-.8-24.33-1.65-50.32,2.05-57.47,5.34-.37.17-.52.62-.32.98.58,1.07,1.38,3.74-.62,3.68-6.71-.22-4.81.33-6.71.4-3.93.16-5.49-2.06-3.19-4.04,11.17-9.58,47.04-10.62,55.78-10.73.3,0,.36-.44.07-.5-29.71-6.28-43.38-11.78-46.81-11.47-2.59.23-4.59-.95-2.1-2.52s19.96-10.29,22.12-13.86c6.78-11.24,9.77-21.89-15.38-22.67-3.68-.12-3.37.72-5.15.69-6.34-.09-5.24-.8-6-1.11Z" fill="#ffd515" stroke-width="0"/>
<path d="M430.27,641.95c-23.04-12.12-54.23,1.05-62.85,5.9-16.72,9.41-21.23,22.84,4.77,33.62,9.47,3.93,36.07,11.74,63.36,10.93,36.77-1.08,22.71-35.73-5.27-50.45ZM441.95,686.61c-25.04,6.5-65.33-5.87-74.38-14.3-12.41-11.57,5.3-22.15,8-23.44,34.75-16.7,49.24-4.54,52.71-2.07,27.81,19.71,22.39,37.56,13.66,39.82Z" fill="#ffd515" stroke-width="0"/>
<path d="M432.34,690.37c-.36.79-.97,2.34,1.61,2.38,3.19.05,4.01-.43,6.24.96.78.49,2.88-.1,2.92-1.1.07-1.74-.43-1.79-.42-5.39,0-5.39-.96-14.16-33.77-17.5-.23-.02-.37-.27-.25-.47,1.25-2.07,6.83-11.62,12.04-24.66,0,0-.87,14.41.03,20.58.3,2.04,1.41,2.02,3.54,1.56.81-.18,2.41-.08,3.56.26,1.37.4,3.56,1.78,3.55-2.37,0-2.8,3.04-12.66,2.41-15.43s-1.53-4.42-1.39-5.48c.58-4.34-.24-5.59-1.91-5.5s-4.55.32-6.03.23c-3.47-.22-2.49-3.71-4.62-3.82-4.05-.21-6.91.18-8.93,1.33s-2.6,2.54-1.35,3.38,2.45-2.74,2.04.24c-.71,5.18-9.01,23.28-12.67,29.56-.87,1.5-1.01,1.95-1.86,2.26-1.75.65-1.91,1.05-1.32,2.18s-.53,1.62,1.91,1.68,6.96.32,8.15.3c1.58-.03.43-1.27,2.38-1.61,2.38-.42,25.78.67,25.25,14.61-.09,2.32-.74,1.01-1.12,1.83Z" fill="#ffd515" stroke-width="0"/>
</g>
</svg>