<?xml version="1.0" encoding="UTF-8"?>
<svg id="a" xmlns="http://www.w3.org/2000/svg" width="1622.14" height="1047.4" viewBox="0 0 1622.14 1047.4">
<g id="b">
<path d="M1112.93,965.17l1.63,19.88c.04.52-.08,1.03-.36,1.47l-2.39,3.83c-.28.45-.4.97-.35,1.49l.85,9.28c.03.38.16.75.36,1.07l1.41,2.22c.22.35.35.76.37,1.17l.69,14.25c0,.1.02.21.03.31l2.12,11.83c.25,1.37,1.6,2.24,2.95,1.91l8.38-2.07c.3-.08.62-.09.93-.04l21.85,3.25c.29.04.57.14.82.28l1.06.59c.37.2.78.31,1.2.31l97-.81c1.1,0,2.06-.77,2.32-1.84l7.33-30.07c.07-.3.09-.6.04-.91l-4.77-33.71c-.14-.97-.84-1.75-1.79-2l-5.9-1.5c-1.35-.34-2.12-1.75-1.7-3.07l.66-2.05c.49-1.51-.6-3.07-2.18-3.14l-120.48-5.32c-.91-.04-1.76.43-2.21,1.23l-1.7,3.04c-.44.78-.41,1.75.09,2.5h0c1.01,1.54-.01,3.6-1.85,3.72l-4.17.28c-1.34.09-2.35,1.26-2.24,2.6Z" fill="#bfb99c" stroke="#000" stroke-miterlimit="10" stroke-width="5"/>
<circle cx="1120.33" cy="974.93" r="2.5" fill="#999" opacity=".4" stroke-width="0"/>
<circle cx="1128.2" cy="975.04" r="3.32" fill="#999" opacity=".4" stroke-width="0"/>
<circle cx="1123.9" cy="980.25" r="1.86" fill="#999" opacity=".4" stroke-width="0"/>
<circle cx="1237.36" cy="966.76" r="2.5" fill="#999" opacity=".4" stroke-width="0"/>
<circle cx="1242.96" cy="972.28" r="3.32" fill="#999" opacity=".4" stroke-width="0"/>
<path d="M1120.67,999.08l.37,2.75c.03.25.15.5.33.72l1.25,1.5c.2.24.31.51.33.79l.73,9.52c0,.07.02.14.03.21l1.96,7.92c.23.92,1.41,1.51,2.58,1.3l7.27-1.3c.26-.05.54-.05.81-.02l19.03,2.38c.25.03.5.1.72.2l.93.41c.32.14.68.21,1.04.22l84.35.39c.96,0,1.78-.49,2-1.2l6.08-20c.06-.2.07-.4.03-.6,0,0-21.07-10.65-45.59-8.72-73.37,5.77-84.25,3.56-84.25,3.56Z" fill="#000" opacity=".2" stroke-width="0"/>
</g>
</svg>