<?xml version="1.0" encoding="UTF-8"?><svg id="a" xmlns="http://www.w3.org/2000/svg" width="1622.14" height="1047.4" viewBox="0 0 1622.14 1047.4"><g id="c"><path d="M1014.2,475.55c15.56,9.05,13.75,36.92,5.43,42.71-8.32,5.79-38.37,2.53-52.48,0-14.12-2.53-60.08-2-45.97-76.73,13.42-71.07,53.67-73.15,67.32-40.17,19.18,46.33,16.46,68.82,25.7,74.2Z" fill="#bf1600" stroke="#000" stroke-miterlimit="10" stroke-width="7"/><path d="M1012.51,503.55c-.87,4.01-4.63,6.88-8.99,6.88h-.09c-1.33-.02-2.83-.06-4.46-.11-4.2-.13-9.23-.3-14.1.11-2.04.17-3.87-1.22-4.18-3.24l-.03-.21c-.05-.35.19-.68.54-.73,3.71-.53,7.55-.56,11.18-.65,8.96-.22,7.94-20.69,3.48-25.58-4.39-4.8-8.75-13.63-9.92-15.92-.16-.31-.03-.7.29-.85h0c1.94-.96,4.29-.21,5.31,1.7,1.68,3.13,4.3,7.71,6.66,10.71.43.55.88,1.1,1.34,1.63,2.53,2.91,5.67,5.35,9.08,7.59,7.17,4.7,3.9,18.67,3.9,18.67Z" fill="#000" stroke-width="0"/><path d="M977.9,508.53s-1.41-2.67,1.78-4.16c2.06-.96,7.38-.78,11.72-1.22s5.88-18.64.63-20.99c-12.03-5.39-60.53-61.53-64.33-22.44,0,0-3.8,39.54,23.78,45.38,19.34,4.1,26.42,3.44,26.42,3.44Z" fill="#000" opacity=".3" stroke-width="0"/><path d="M996.95,455.46s-6.55-31.13-14.46-49.55c-15.06-35.08-39.12-5.58-40.95.33,0,0,32.85-21.35,55.41,49.22Z" fill="#f2f2f2" opacity=".4" stroke-width="0"/><path d="M1000.88,556.64c19.06-4.65,25.17-25.03,18.03-30.23-7.14-5.2-39.84-6.49-55.5-6.37-15.66.12-64.11-5.85-70.69,49.91-6.25,53.03,35.7,59.42,59.63,37.23,33.62-31.17,37.21-47.77,48.53-50.54Z" fill="#000" opacity=".3" stroke-width="0"/></g></svg>