<?xml version="1.0" encoding="UTF-8"?>
<svg id="a" xmlns="http://www.w3.org/2000/svg" width="1622.14" height="1047.4" viewBox="0 0 1622.14 1047.4">
<g id="b">
<path d="M614.43,603.27c-119.78-4.71-220.69,88.59-225.4,208.37-4.71,119.78,88.59,220.69,208.37,225.4,119.78,4.71,220.69-88.59,225.4-208.37,4.71-119.78-88.59-220.69-208.37-225.4Z" fill="#020003" stroke-width="0"/>
<path d="M808.69,824.22c-.54,26.41-30.88,27.49-30.88,27.49,1.94-9.27,3.13-18.84,3.52-28.64,3.73-94.95-74.14-175.04-169.1-178.78-94.95-3.73-178.87,70.15-182.6,165.1-.47,11.86.29,23.5,2.14,34.76,0,0-30.15-5.89-29.49-35.91,2.45-112.29,98.96-199.63,211.19-195.22,112.23,4.4,197.54,98.9,195.22,211.19Z" fill="#3a2f35" stroke-width="0"/>
<path d="M728.93,954.95c3.49-2.53,7.84,1.83,5.21,5.26-29.26,38.23-81.5,62.47-131.62,61.37-54.12-1.18-101.31-27.67-128.81-67.05-2.47-3.54,2.06-7.71,5.44-5.02,33.5,26.59,76.63,43.03,123.98,44.06,47.35,1.03,91.16-13.51,125.8-38.62Z" fill="#3a2f35" stroke-width="0"/>
<g id="c">
<path d="M605.38,651.84c-92.96,0-168.31,75.35-168.31,168.31s75.35,168.3,168.31,168.3,168.3-75.35,168.3-168.3-75.35-168.31-168.3-168.31ZM525.54,923.41c-.5-.37-.98-.74-1.46-1.1-11.4-8.78-16.35-14.48-18.23-16.98-.59-.79-.45-1.91.31-2.53,25.73-21.02,31.47-24.4,39.85-29.7,13.01-8.24,19.19-3.66,19.19-3.66l.61.46s6.63,4.81,2.02,19.42c-2.92,9.27-4.26,16.01-16.97,46.72-.38.91-1.41,1.36-2.34,1.02-2.93-1.08-9.82-4.18-21.5-12.57-.49-.35-.98-.71-1.48-1.08ZM480.79,779.82c.18-.57.37-1.15.56-1.74.21-.59.41-1.17.61-1.73,4.82-13.55,8.71-20.02,10.51-22.58.56-.81,1.67-1.03,2.5-.49,27.94,17.98,32.93,22.39,40.56,28.72,11.86,9.83,9.41,17.12,9.41,17.12l-.25.72s-2.52,7.8-17.85,7.93c-9.71.08-16.54.89-49.67-1.71-.98-.08-1.73-.92-1.7-1.9.12-3.13.95-10.64,5.32-24.34ZM579.61,693.19c3.01-.85,10.4-2.39,24.79-2.47h1.83c.62.02,1.23.03,1.82.04,14.39.4,21.74,2.1,24.73,3.02.95.29,1.49,1.28,1.24,2.23-8.47,32.13-11.12,38.24-14.78,47.45-5.62,14.17-13.23,14.24-13.38,14.24h-.76s-8.2-.02-13.05-14.54c-3.09-9.21-5.96-15.46-13.73-47.77-.23-.96.34-1.93,1.29-2.2ZM648.56,698.36c3.86.76,16.62,4.27,35.71,19.76,12.03,9.76,23.25,22.88,24.93,26.15,1.53,2.98.6,4.99-1.85,6.43-22.26,13.08-42.24,21.39-51.61,25.24-10.44,4.3-16.74-.46-16.74-.46,0,0-7.44-5.79-6.18-17.01,1.13-10.07,3.62-31.57,10.07-56.57.71-2.75,2.38-4.2,5.67-3.54ZM728.28,784.59c.17.6.34,1.18.5,1.76,3.83,13.87,4.35,21.4,4.34,24.53,0,.99-.78,1.79-1.77,1.83-33.2,1.3-39.82.55-49.7-.26-15.34-1.25-17.52-8.63-17.52-8.63l-.21-.72s-2.41-7.84,10.07-16.74c7.91-5.64,13.04-10.22,41.67-27.09.85-.5,1.94-.24,2.48.59,1.7,2.62,5.33,9.24,9.61,22.98.18.57.35,1.16.53,1.75ZM568.89,700.27c5.81,25.16,7.76,46.71,8.63,56.81.97,11.24-5.46,15.83-5.46,15.83,0,0-7.75,5.36-18.08.8-9.27-4.09-29.04-12.91-50.96-26.55-2.41-1.5-3.29-3.52-1.68-6.48,1.89-3.45,9.06-14.57,29.56-28.15,12.9-8.55,28.79-15.32,32.41-15.94,3.31-.57,4.94.91,5.58,3.68ZM473.85,819.61c.51-3.32,2.44-4.4,5.27-4.12,25.7,2.48,46.75,7.48,56.6,9.86,10.98,2.66,13.28,10.21,13.28,10.21,0,0,2.62,9.05-4.98,17.4-6.83,7.49-21.47,23.43-41.36,39.88-2.19,1.81-4.39,2-6.68-.47-2.68-2.88-10.94-13.21-17.3-36.96-4.01-14.96-5.39-32.17-4.83-35.8ZM563.03,943.48c-3-1.51-3.43-3.68-2.3-6.28,10.31-23.68,21.57-42.16,26.88-50.79,5.91-9.61,13.8-9.47,13.8-9.47,0,0,9.43.3,15.01,10.11,5.02,8.81,15.65,27.66,25.15,51.66,1.04,2.65.55,4.8-2.51,6.21-3.57,1.65-15.94,6.32-40.5,5.03-15.46-.81-32.26-4.81-35.53-6.47ZM654.44,939.54c-.94.32-1.95-.16-2.31-1.08-12.04-30.97-13.48-37.47-15.94-47.08-3.81-14.92,2.46-19.37,2.46-19.37l.62-.44s6.62-4.83,19.1,4.07c7.91,5.64,13.91,9.01,39.18,30.58.75.64.86,1.76.25,2.54-1.93,2.46-7.01,8.05-18.6,16.56-.48.36-.98.72-1.48,1.08-.51.36-1.01.7-1.5,1.04-11.87,8.14-18.82,11.08-21.78,12.1ZM701.7,897.19c-19.33-17.12-33.42-33.54-39.99-41.26-7.32-8.59-4.74-16.05-4.74-16.05,0,0,3.2-8.87,14.26-11.15,9.92-2.05,31.13-6.34,56.9-7.95,2.83-.18,4.73.96,5.13,4.3.47,3.9,1.08,17.12-7.73,40.07-5.55,14.46-14.55,29.19-17.14,31.8-2.37,2.38-4.56,2.12-6.69.24Z" fill="#bf1600" stroke-width="0"/>
<path d="M758.31,817.39c-.01-1.1-.05-2.2-.09-3.3-.62-15.64-3.68-31.44-9.39-46.91-3.13-8.49-6.94-16.54-11.35-24.1-.55-.95-1.11-1.9-1.68-2.83-20.48-33.51-52.74-57.13-89.19-67.37-1.07-.31-2.15-.6-3.23-.87-23.44-6.04-48.5-6.57-73.21-.68-1.09.24-2.18.52-3.27.81-4.85,1.26-9.69,2.78-14.49,4.55-31.66,11.69-57.14,32.76-74.45,58.89-.64.96-1.26,1.92-1.88,2.9-12.9,20.45-20.89,43.82-23.06,68.15-.11,1.13-.2,2.27-.27,3.41-1.39,20.81,1.48,42.24,9.17,63.07,5.45,14.76,12.94,28.17,22.02,40.04.69.9,1.39,1.79,2.1,2.67,15.57,19.43,35.52,34.52,57.81,44.32,1.02.45,2.06.89,3.09,1.32,33.5,13.86,71.99,15.92,108.76,3.08.88-.3,1.76-.62,2.64-.94.18-.07.35-.13.53-.2,24.06-8.98,44.53-23.38,60.53-41.31.74-.83,1.47-1.66,2.18-2.51,24.09-28.2,37.41-64.6,36.73-102.19ZM697.8,908.76c-1.93,2.46-7.01,8.05-18.6,16.56-.48.36-.98.72-1.48,1.08-.51.36-1.01.7-1.5,1.04-11.87,8.14-18.82,11.08-21.78,12.1-.94.32-1.95-.16-2.31-1.08-12.04-30.97-13.48-37.47-15.94-47.08-3.81-14.92,2.46-19.37,2.46-19.37l.62-.44s6.62-4.83,19.1,4.07c7.91,5.64,13.91,9.01,39.18,30.58.75.64.86,1.76.25,2.54ZM525.54,923.41c-.5-.37-.98-.74-1.46-1.1-11.4-8.78-16.35-14.48-18.23-16.98-.59-.79-.45-1.91.31-2.53,25.73-21.02,31.47-24.4,39.85-29.7,13.01-8.24,19.19-3.66,19.19-3.66l.61.46s6.63,4.81,2.02,19.42c-2.92,9.27-4.26,16.01-16.97,46.72-.38.91-1.41,1.36-2.34,1.02-2.93-1.08-9.82-4.18-21.5-12.57-.49-.35-.98-.71-1.48-1.08ZM473.85,819.61c.51-3.32,2.44-4.4,5.27-4.12,25.7,2.48,46.75,7.48,56.6,9.86,10.98,2.66,13.28,10.21,13.28,10.21,0,0,2.62,9.05-4.98,17.4-6.83,7.49-21.47,23.43-41.36,39.88-2.19,1.81-4.39,2-6.68-.47-2.68-2.88-10.94-13.21-17.3-36.96-4.01-14.96-5.39-32.17-4.83-35.8ZM480.79,779.82c.18-.57.37-1.15.56-1.74.21-.59.41-1.17.61-1.73,4.82-13.55,8.71-20.02,10.51-22.58.56-.81,1.67-1.03,2.5-.49,27.94,17.98,32.93,22.39,40.56,28.72,11.86,9.83,9.41,17.12,9.41,17.12l-.25.72s-2.52,7.8-17.85,7.93c-9.71.08-16.54.89-49.67-1.71-.98-.08-1.73-.92-1.7-1.9.12-3.13.95-10.64,5.32-24.34ZM579.61,693.19c3.01-.85,10.4-2.39,24.79-2.47h1.83c.62.02,1.23.03,1.82.04,14.39.4,21.74,2.1,24.73,3.02.95.29,1.49,1.28,1.24,2.23-8.47,32.13-11.12,38.24-14.78,47.45-5.62,14.17-13.23,14.24-13.38,14.24h-.76s-8.2-.02-13.05-14.54c-3.09-9.21-5.96-15.46-13.73-47.77-.23-.96.34-1.93,1.29-2.2ZM648.56,698.36c3.86.76,16.62,4.27,35.71,19.76,12.03,9.76,23.25,22.88,24.93,26.15,1.53,2.98.6,4.99-1.85,6.43-22.26,13.08-42.24,21.39-51.61,25.24-10.44,4.3-16.74-.46-16.74-.46,0,0-7.44-5.79-6.18-17.01,1.13-10.07,3.62-31.57,10.07-56.57.71-2.75,2.38-4.2,5.67-3.54ZM728.28,784.59c.17.6.34,1.18.5,1.76,3.83,13.87,4.35,21.4,4.34,24.53,0,.99-.78,1.79-1.77,1.83-33.2,1.3-39.82.55-49.7-.26-15.34-1.25-17.52-8.63-17.52-8.63l-.21-.72s-2.41-7.84,10.07-16.74c7.91-5.64,13.04-10.22,41.67-27.09.85-.5,1.94-.24,2.48.59,1.7,2.62,5.33,9.24,9.61,22.98.18.57.35,1.16.53,1.75ZM530.9,712.53c12.9-8.55,28.79-15.32,32.41-15.94,3.31-.57,4.94.91,5.58,3.68,5.81,25.16,7.76,46.71,8.63,56.81.97,11.24-5.46,15.83-5.46,15.83,0,0-7.75,5.36-18.08.8-9.27-4.09-29.04-12.91-50.96-26.55-2.41-1.5-3.29-3.52-1.68-6.48,1.89-3.45,9.06-14.57,29.56-28.15ZM563.03,943.48c-3-1.51-3.43-3.68-2.3-6.28,10.31-23.68,21.57-42.16,26.88-50.79,5.91-9.61,13.8-9.47,13.8-9.47,0,0,9.43.3,15.01,10.11,5.02,8.81,15.65,27.66,25.15,51.66,1.04,2.65.55,4.8-2.51,6.21-3.57,1.65-15.94,6.32-40.5,5.03-15.46-.81-32.26-4.81-35.53-6.47ZM701.7,897.19c-19.33-17.12-33.42-33.54-39.99-41.26-7.32-8.59-4.74-16.05-4.74-16.05,0,0,3.2-8.87,14.26-11.15,9.92-2.05,31.13-6.34,56.9-7.95,2.83-.18,4.73.96,5.13,4.3.47,3.9,1.08,17.12-7.73,40.07-5.55,14.46-14.55,29.19-17.14,31.8-2.37,2.38-4.56,2.12-6.69.24Z" fill="#000" opacity=".3" stroke-width="0"/>
<path d="M746.17,818.06c-.01-1.23-.05-2.46-.09-3.69-.47-11.66-2.35-22.96-5.46-33.73-.09-.33-.19-.67-.29-1-.05-.17-.1-.34-.15-.5-.04-.12-.07-.24-.11-.35-.04-.13-.08-.26-.12-.39-.06-.22-.13-.44-.2-.66-.19-.62-.39-1.23-.59-1.84-.07-.22-.14-.43-.21-.65-.05-.13-.09-.26-.13-.39-.04-.11-.08-.22-.12-.34-.07-.2-.14-.41-.21-.61-.1-.29-.2-.59-.3-.88-2.9-8.26-6.54-16.16-10.85-23.64-.61-1.06-1.23-2.12-1.87-3.17-18.27-29.92-47.28-52.57-81.67-62.58-1.18-.34-2.36-.67-3.56-.98-11.56-3.04-23.71-4.66-36.23-4.66-10.75,0-21.22,1.19-31.29,3.45-1.2.27-2.4.56-3.59.86-34.35,8.66-63.73,29.82-83.01,58.36-.7,1.03-1.38,2.07-2.05,3.12-11.88,18.61-19.54,40.16-21.65,63.32-.11,1.23-.21,2.46-.28,3.7-.21,3.1-.31,6.22-.31,9.37,0,32.68,11.02,62.78,29.55,86.79.75.97,1.52,1.94,2.29,2.89,14.33,17.6,32.78,31.71,53.88,40.85,1.13.49,2.26.96,3.4,1.42,16.39,6.6,34.3,10.23,53.06,10.23,16.69,0,32.72-2.88,47.6-8.17,1.17-.41,2.33-.84,3.48-1.28h0c21.38-8.24,40.27-21.49,55.22-38.33.82-.92,1.63-1.86,2.43-2.8,20.87-24.74,33.44-56.7,33.44-91.6,0-.71-.01-1.41-.02-2.12ZM727.75,782.84c.18.57.35,1.16.53,1.75.17.6.34,1.18.5,1.76,3.83,13.87,4.35,21.4,4.34,24.53,0,.99-.78,1.79-1.77,1.83-33.2,1.3-39.82.55-49.7-.26-15.34-1.25-17.52-8.63-17.52-8.63l-.21-.72s-2.41-7.84,10.07-16.74c7.91-5.64,13.04-10.22,41.67-27.09.85-.5,1.94-.24,2.48.59,1.7,2.62,5.33,9.24,9.61,22.98ZM648.56,698.36c3.86.76,16.62,4.27,35.71,19.76,12.03,9.76,23.25,22.88,24.93,26.15,1.53,2.98.6,4.99-1.85,6.43-22.26,13.08-42.24,21.39-51.61,25.24-10.44,4.3-16.74-.46-16.74-.46,0,0-7.44-5.79-6.18-17.01,1.13-10.07,3.62-31.57,10.07-56.57.71-2.75,2.38-4.2,5.67-3.54ZM579.61,693.19c3.01-.85,10.4-2.39,24.79-2.47h1.83c.62.02,1.23.03,1.82.04,14.39.4,21.74,2.1,24.73,3.02.95.29,1.49,1.28,1.24,2.23-8.47,32.13-11.12,38.24-14.78,47.45-5.62,14.17-13.23,14.24-13.38,14.24h-.76s-8.2-.02-13.05-14.54c-3.09-9.21-5.96-15.46-13.73-47.77-.23-.96.34-1.93,1.29-2.2ZM501.34,740.68c1.89-3.45,9.06-14.57,29.56-28.15,12.9-8.55,28.79-15.32,32.41-15.94,3.31-.57,4.94.91,5.58,3.68,5.81,25.16,7.76,46.71,8.63,56.81.97,11.24-5.46,15.83-5.46,15.83,0,0-7.75,5.36-18.08.8-9.27-4.09-29.04-12.91-50.96-26.55-2.41-1.5-3.29-3.52-1.68-6.48ZM480.79,779.82c.18-.57.37-1.15.56-1.74.21-.59.41-1.17.61-1.73,4.82-13.55,8.71-20.02,10.51-22.58.56-.81,1.67-1.03,2.5-.49,27.94,17.98,32.93,22.39,40.56,28.72,11.86,9.83,9.41,17.12,9.41,17.12l-.25.72s-2.52,7.8-17.85,7.93c-9.71.08-16.54.89-49.67-1.71-.98-.08-1.73-.92-1.7-1.9.12-3.13.95-10.64,5.32-24.34ZM478.68,855.41c-4.01-14.96-5.39-32.17-4.83-35.8.51-3.32,2.44-4.4,5.27-4.12,25.7,2.48,46.75,7.48,56.6,9.86,10.98,2.66,13.28,10.21,13.28,10.21,0,0,2.62,9.05-4.98,17.4-6.83,7.49-21.47,23.43-41.36,39.88-2.19,1.81-4.39,2-6.68-.47-2.68-2.88-10.94-13.21-17.3-36.96ZM527.02,924.49c-.49-.35-.98-.71-1.48-1.08-.5-.37-.98-.74-1.46-1.1-11.4-8.78-16.35-14.48-18.23-16.98-.59-.79-.45-1.91.31-2.53,25.73-21.02,31.47-24.4,39.85-29.7,13.01-8.24,19.19-3.66,19.19-3.66l.61.46s6.63,4.81,2.02,19.42c-2.92,9.27-4.26,16.01-16.97,46.72-.38.91-1.41,1.36-2.34,1.02-2.93-1.08-9.82-4.18-21.5-12.57ZM639.06,944.92c-3.57,1.65-15.94,6.32-40.5,5.03-15.46-.81-32.26-4.81-35.53-6.47-3-1.51-3.43-3.68-2.3-6.28,10.31-23.68,21.57-42.16,26.88-50.79,5.91-9.61,13.8-9.47,13.8-9.47,0,0,9.43.3,15.01,10.11,5.02,8.81,15.65,27.66,25.15,51.66,1.04,2.65.55,4.8-2.51,6.21ZM697.8,908.76c-1.93,2.46-7.01,8.05-18.6,16.56-.48.36-.98.72-1.48,1.08-.51.36-1.01.7-1.5,1.04-11.87,8.14-18.82,11.08-21.78,12.1-.94.32-1.95-.16-2.31-1.08-12.04-30.97-13.48-37.47-15.94-47.08-3.81-14.92,2.46-19.37,2.46-19.37l.62-.44s6.62-4.83,19.1,4.07c7.91,5.64,13.91,9.01,39.18,30.58.75.64.86,1.76.25,2.54ZM725.53,865.15c-5.55,14.46-14.55,29.19-17.14,31.8-2.37,2.38-4.56,2.12-6.69.24-19.33-17.12-33.42-33.54-39.99-41.26-7.32-8.59-4.74-16.05-4.74-16.05,0,0,3.2-8.87,14.26-11.15,9.92-2.05,31.13-6.34,56.9-7.95,2.83-.18,4.73.96,5.13,4.3.47,3.9,1.08,17.12-7.73,40.07Z" fill="#bf1600" stroke-width="0"/>
<path d="M647.27,670.2c-7.26,29.72-28.48,99.61-30.77,105.76-2.31,6.21-8.8,6.67-12.1,6.54-3.31,0-9.74-.73-11.79-7.02-2.04-6.24-20.41-76.93-26.45-106.92-.1-.47.19-.94.66-1.06l1.05-.27c.66-.17,1.34.23,1.5.9,21.11,84.61,25.23,90.9,35.54,91.24,10.28.06,14.68-6.16,39.17-89.72.19-.66.88-1.03,1.54-.83l1.04.31c.46.14.73.62.62,1.08Z" fill="#ea1600" stroke-width="0"/>
<path d="M472.93,732.53c26.26,15.69,86.8,56.57,92,60.57,5.25,4.04,3.79,10.37,2.68,13.49-.97,3.16-3.57,9.09-10.19,9.2-6.56.11-79.53-3.17-109.97-6.23-.48-.05-.84-.46-.82-.94l.05-1.09c.03-.68.62-1.21,1.3-1.17,87.07,4.76,94.3,2.68,97.66-7.08,3.09-9.81-1.56-15.85-74.19-63.87-.57-.38-.73-1.15-.34-1.72l.61-.9c.27-.4.8-.52,1.22-.27Z" fill="#ea1600" stroke-width="0"/>
<path d="M760.34,817.25c-30.51,2.17-103.55,3.32-110.1,3.02-6.62-.3-9.04-6.34-9.93-9.53-1.01-3.15-2.28-9.5,3.08-13.38,5.31-3.85,67.02-42.94,93.72-57.86.42-.24.95-.1,1.21.3l.58.92c.36.58.19,1.34-.4,1.71-74.11,45.95-78.84,51.8-76.01,61.72,3.08,9.81,10.35,12.1,97.4,9.88.68-.02,1.25.53,1.26,1.21l.02,1.08c0,.48-.36.89-.84.92Z" fill="#ea1600" stroke-width="0"/>
<path d="M480.54,916.04c23.19-19.96,81.09-64.48,86.53-68.15,5.49-3.71,11.04-.31,13.65,1.72,2.69,1.92,7.5,6.26,5.51,12.57-1.97,6.26-28.13,74.46-40.65,102.37-.2.44-.7.65-1.15.48l-1.01-.39c-.64-.25-.95-.97-.7-1.6,32.03-81.11,32.33-88.62,24.14-94.89-8.33-6.03-15.53-3.53-84.04,50.22-.54.42-1.32.33-1.74-.22l-.66-.86c-.3-.38-.24-.93.13-1.24Z" fill="#ea1600" stroke-width="0"/>
<path d="M657.07,967.93c-11.73-28.26-35.96-97.16-37.75-103.47-1.81-6.37,3.15-10.59,5.89-12.43,2.67-1.96,8.29-5.17,13.66-1.31,5.33,3.82,61.96,49.96,84.57,70.56.36.33.4.87.1,1.25l-.69.84c-.43.53-1.22.6-1.74.17-67.06-55.74-74.11-58.37-82.62-52.54-8.33,6.03-8.2,13.65,21.49,95.51.23.64-.1,1.36-.75,1.58l-1.02.36c-.45.16-.96-.06-1.14-.51Z" fill="#ea1600" stroke-width="0"/>
<circle cx="603.68" cy="820.18" r="31.61" fill="#ea1600" stroke-width="0"/>
<circle cx="603.68" cy="820.18" r="30.14" fill="#141414" stroke-width="0"/>
<circle cx="603.68" cy="820.18" r="22.76" fill="#1f1f1f" stroke-width="0"/>
<circle cx="603.68" cy="820.18" r="20.84" fill="#141414" stroke-width="0"/>
<path d="M645.15,940.58l-1.77.57c-12.74-30.81-22.56-50.28-28-57.17-5.81-7.35-11.3-7.82-14.34-7.94-2.13.33-6.98.18-12.93,7.72-5.44,6.89-16.91,26.59-29.65,57.4l-1.77-.57c.57-1.14,23.73-57.51,27.54-66.88,3.7-9.09,12.17-8.5,16.5-8.67.06,0,.13,0,.19,0h.01c.06,0,.12,0,.19,0,4.47.14,15.45-.81,19.15,8.29,3.81,9.37,24.32,66.12,24.89,67.27Z" fill="#000" opacity=".3" stroke-width="0"/>
<path d="M501.79,896.84l-1.07-1.52c25.66-21.29,41.36-36.43,46.33-43.66,5.3-7.73,4.13-13.11,3.34-16.05-.95-1.94-2.24-6.61-11.2-10.07-8.19-3.16-30.4-8.29-63.61-11.34l.02-1.86c1.26.21,61.96,5.65,72.04,6.51,9.78.84,11.72,9.11,13.16,13.19.02.06.04.12.07.18h0c.01.07.03.13.05.19,1.19,4.31,5.34,14.52-2.25,20.74-7.82,6.41-55.96,42.8-56.89,43.68Z" fill="#000" opacity=".3" stroke-width="0"/>
<path d="M499.93,748.89l1.06-1.53c28.84,16.75,48.46,26.26,56.96,28.43,9.08,2.31,13.73-.65,16.22-2.4,1.49-1.56,5.44-4.38,5.59-13.98.14-8.78-2.71-31.39-11.29-63.61l1.75-.62c.24,1.25,16.07,60.11,18.73,69.86,2.58,9.47-4.51,14.14-7.85,16.9-.05.04-.1.08-.14.12h-.01c-.05.04-.1.08-.15.12-3.64,2.6-11.78,10.02-20.24,5.04-8.72-5.13-59.48-37.77-60.62-38.33Z" fill="#000" opacity=".3" stroke-width="0"/>
<path d="M641.49,698.86l1.76.6c-8.19,32.32-11.95,53.8-11.7,62.58.27,9.37,4.39,13.03,6.76,14.94,1.91,1.01,5.7,4.03,14.98,1.54,8.48-2.27,29.45-11.22,58.07-28.32l1.08,1.52c-1.14.57-53.39,31.95-62.04,37.19-8.4,5.08-14.84-.45-18.41-2.91-.05-.04-.11-.07-.16-.11h-.01s-.1-.08-.15-.12c-3.5-2.79-12.87-8.58-10.4-18.08,2.54-9.79,19.99-67.56,20.22-68.82Z" fill="#000" opacity=".3" stroke-width="0"/>
<path d="M730.94,818.46v1.86c-33.25,2.59-54.8,5.89-63.03,8.94-8.79,3.25-10.94,8.33-11.99,11.18-.35,2.13-1.99,6.69,3.34,14.68,4.87,7.31,20.05,24.31,45.41,45.96l-1.09,1.51c-.91-.9-47.35-40.36-55.08-46.88-7.5-6.33-4.32-14.2-3.14-18.37.02-.06.03-.12.05-.18h0c.02-.07.04-.13.06-.19,1.52-4.21,4.01-14.94,13.8-15.64,10.09-.72,70.4-2.67,71.67-2.86Z" fill="#000" opacity=".3" stroke-width="0"/>
<ellipse cx="739.26" cy="776.89" rx="3.42" ry="4" transform="translate(-181.35 226.85) rotate(-15.56)" fill="#000" stroke-width="0"/>
<polygon points="742.27 777.66 741.43 774.67 738.42 773.89 736.25 776.11 737.08 779.11 740.09 779.88 742.27 777.66" fill="#333" stroke-width="0"/>
<circle cx="739.26" cy="776.89" r="2.44" fill="#121111" stroke-width="0"/>
<circle cx="739.26" cy="776.89" r="2.07" fill="#000" stroke-width="0"/>
<circle cx="739.26" cy="776.89" r=".99" fill="#121111" stroke-width="0"/>
<circle cx="739.26" cy="776.89" r="1.67" fill="#1d1d1b" stroke-width="0"/>
</g>
</g>
</svg>