<?xml version="1.0" encoding="UTF-8"?>
<svg id="a" xmlns="http://www.w3.org/2000/svg" width="1622.14" height="1047.4" viewBox="0 0 1622.14 1047.4">
<g id="b">
<path d="M515.85,950.73l-1.53,32.27c-.01.27.02.53.09.79l1.41,5.19c.54,2,1.98,3.63,3.9,4.43h0c1.59.66,2.08,2.66.99,3.98l-1.93,2.34c-.45.55-.66,1.27-.56,1.97l1.32,9.6c.03.18.03.37.02.55l-.56,6.98c-.02.22,0,.44.03.66l2.78,15.53c.21,1.2,1.25,2.08,2.47,2.1l39.36.68c.42,0,.84.12,1.2.33l1.33.74c.38.22.82.33,1.26.33l17.98-.06c.88,0,1.69-.45,2.15-1.2l2.38-3.79c.91-1.45,2.95-1.61,4.08-.33l3.95,4.49c.49.56,1.2.88,1.94.87l87.02-.97c1.48-.02,2.64-1.28,2.52-2.75-.27-3.32-.78-8.49-1.29-8.52-.47-.02,3.06.44,5.8.79,1.58.2,2.96-1.07,2.87-2.66l-3.59-69.11c-.06-1.12-.84-2.07-1.92-2.34l-7.83-1.99c-1.43-.36-2.25-1.85-1.8-3.25l1.12-3.48c.52-1.6-.63-3.26-2.32-3.33l-150.88-6.66c-.19,0-.38,0-.57.03l-5.69.8c-2.54.36-3.02,3.82-.68,4.86l2.08.92c.45.2.83.52,1.1.93l.97,1.48c1.07,1.63-.01,3.82-1.96,3.95l-6.61.45c-1.29.09-2.32,1.13-2.38,2.42Z" fill="#bfb99c" stroke="#000" stroke-miterlimit="10" stroke-width="5"/>
<path d="M529.58,990.99c1.39.54,1.84,2.18.88,3.26l-1.69,1.9c-.4.45-.57,1.03-.49,1.61l1.19,7.85c.02.15.03.3.02.45l-.48,5.7c-.01.18,0,.36.03.54l2.49,12.7c.19.98,1.1,1.7,2.17,1.72l34.58.67c.37,0,.73.1,1.06.27l1.17.61c.34.18.72.27,1.1.27h9.54c.77,0,1.48-.36,1.89-.96l2.08-3.09c4.07-6.22,8.84-1.31,9.83-.26l3.48,3.68c.43.46,1.06.72,1.71.71l76.45-.54c1.3,0,2.31-1.04,2.2-2.24-.25-2.71-.71-6.94-1.16-6.96-.42-.02,2.69.37,5.09.66,1.39.17,2.59-.87,2.52-2.17l-1.68-28.2s-26.83,4.95-83.65-2.59c-41.56-5.52-70.34,4.4-70.34,4.4Z" fill="#000" opacity=".2" stroke-width="0"/>
<circle cx="665.17" cy="962.05" r="3.09" fill="#999" opacity=".4" stroke-width="0"/>
<circle cx="670.7" cy="954.06" r="4.1" fill="#999" opacity=".4" stroke-width="0"/>
<circle cx="673.08" cy="962.05" r="2.3" fill="#999" opacity=".4" stroke-width="0"/>
<circle cx="526.83" cy="966.4" r="4.1" fill="#999" opacity=".4" stroke-width="0"/>
<circle cx="525.62" cy="974.65" r="2.3" fill="#999" opacity=".4" stroke-width="0"/>
</g>
</svg>