<?xml version="1.0" encoding="UTF-8"?><svg id="a" xmlns="http://www.w3.org/2000/svg" width="1622.14" height="1047.4" viewBox="0 0 1622.14 1047.4"><g id="b"><path d="M1196.05,673.99c-99.17-3.9-182.72,73.34-186.62,172.5-3.88,99.17,73.34,182.72,172.51,186.62,99.17,3.9,184.3-73.31,188.2-172.47,3.9-99.17-74.92-182.75-174.1-186.65ZM1190.18,984.97c-72.76,0-131.75-58.99-131.75-131.75s58.99-131.75,131.75-131.75,131.75,58.98,131.75,131.75-58.99,131.75-131.75,131.75Z" fill="#020003" stroke-width="0"/><path d="M1358.89,856.95c-.45,21.86-25.56,22.76-25.56,22.76,1.61-7.67,2.59-15.6,2.91-23.71,3.09-78.61-62.97-144.95-141.59-148.05-78.61-3.09-148.09,58.08-151.18,136.69-.39,9.82.24,19.45,1.77,28.78,0,0-24.96-4.88-24.42-29.73,2.03-92.96,81.93-165.27,174.84-161.63,92.92,3.65,165.13,81.91,163.22,174.88Z" fill="#3a2f35" stroke-width="0"/><path d="M1290.01,965.14c2.89-2.1,6.49,1.51,4.32,4.35-24.17,31.58-64.16,51.79-108.97,50.81-44.81-.98-83.88-22.91-106.64-55.51-2.05-2.93,1.7-6.38,4.5-4.16,27.74,22.01,63.44,35.63,102.65,36.48,39.2.86,75.48-11.19,104.15-31.97Z" fill="#3a2f35" stroke-width="0"/><path d="M614.43,603.27c-119.78-4.71-220.69,88.59-225.4,208.37-4.71,119.78,88.59,220.69,208.37,225.4,119.78,4.71,220.69-88.59,225.4-208.37,4.71-119.78-88.59-220.69-208.37-225.4ZM604.44,974.37c-86.23,0-156.12-69.9-156.12-156.12s69.9-156.12,156.12-156.12,156.12,69.9,156.12,156.12-69.9,156.12-156.12,156.12Z" fill="#020003" stroke-width="0"/><path d="M808.69,824.22c-.54,26.41-30.88,27.49-30.88,27.49,1.94-9.27,3.13-18.84,3.52-28.64,3.73-94.95-74.14-175.04-169.1-178.78-94.95-3.73-178.87,70.15-182.6,165.1-.47,11.86.29,23.5,2.14,34.76,0,0-30.15-5.89-29.49-35.91,2.45-112.29,98.96-199.63,211.19-195.22,112.23,4.4,197.54,98.9,195.22,211.19Z" fill="#3a2f35" stroke-width="0"/><path d="M728.93,954.95c3.49-2.53,7.84,1.83,5.21,5.26-29.26,38.23-81.5,62.47-131.62,61.37-54.12-1.18-101.31-27.67-128.81-67.05-2.47-3.54,2.06-7.71,5.44-5.02,33.5,26.59,76.63,43.03,123.98,44.06,47.35,1.03,91.16-13.51,125.8-38.62Z" fill="#3a2f35" stroke-width="0"/><g id="c"><circle cx="1189.79" cy="854.71" r="138.61" fill="#bf1600" stroke-width="0"/><circle cx="1189.79" cy="854.71" r="125.93" fill="#000" opacity=".3" stroke-width="0"/><circle cx="1188.66" cy="854.74" r="117.09" fill="#bf1600" stroke-width="0"/><path d="M1212.36,750.65c.78.24,1.23,1.05,1.02,1.84-6.97,26.46-9.16,31.49-12.17,39.08-4.68,11.78-11.02,11.72-11.02,11.72h-.63s-6.75,0-10.75-11.97c-2.54-7.59-4.91-12.73-11.3-39.34-.19-.79.28-1.59,1.06-1.81,2.48-.7,8.57-1.97,20.41-2.03.49,0,1,0,1.51,0,.51.01,1.01.02,1.5.04,11.84.33,17.9,1.73,20.36,2.48Z" fill="#000" stroke-width="0"/><path d="M1159.74,755.99c4.79,20.72,6.39,38.47,7.11,46.78.8,9.26-4.49,13.04-4.49,13.04,0,0-6.39,4.41-14.89.66-7.63-3.37-23.91-10.63-41.96-21.86-1.98-1.24-2.71-2.91-1.38-5.34,1.55-2.84,7.46-12,24.34-23.18,10.63-7.04,23.71-12.62,26.69-13.13,2.73-.47,4.07.76,4.6,3.04Z" fill="#000" stroke-width="0"/><path d="M1096.8,800.04c.47-.67,1.38-.84,2.06-.4,23.01,14.81,27.12,18.44,33.41,23.65,9.76,8.09,7.74,14.1,7.74,14.1l-.2.59s-2.08,6.42-14.7,6.53c-8,.07-13.63.73-40.91-1.41-.81-.06-1.43-.75-1.4-1.57.1-2.58.77-8.76,4.38-20.04.15-.47.31-.95.46-1.43.17-.48.33-.96.5-1.42,3.97-11.16,7.17-16.49,8.66-18.6Z" fill="#000" stroke-width="0"/><path d="M1085.81,850.87c21.16,2.04,38.5,6.16,46.61,8.13,9.04,2.19,10.93,8.4,10.93,8.4,0,0,2.16,7.46-4.1,14.33-5.62,6.17-17.68,19.29-34.06,32.84-1.8,1.49-3.62,1.65-5.5-.38-2.2-2.38-9.01-10.88-14.25-30.44-3.3-12.32-4.44-26.49-3.97-29.48.42-2.73,2.01-3.62,4.34-3.39Z" fill="#000" stroke-width="0"/><path d="M1107.82,924.86c-.49-.65-.37-1.57.26-2.08,21.19-17.31,25.92-20.1,32.82-24.46,10.71-6.78,15.8-3.01,15.8-3.01l.5.37s5.47,3.96,1.67,16c-2.41,7.63-3.51,13.19-13.98,38.47-.31.75-1.16,1.13-1.92.85-2.42-.89-8.09-3.44-17.71-10.36-.4-.29-.81-.58-1.22-.88-.41-.31-.81-.61-1.2-.91-9.39-7.22-13.47-11.92-15.02-13.98Z" fill="#000" stroke-width="0"/><path d="M1153.02,951.1c8.49-19.5,17.76-34.71,22.13-41.82,4.87-7.92,11.37-7.8,11.37-7.8,0,0,7.76.25,12.36,8.33,4.13,7.25,12.89,22.77,20.71,42.54.86,2.17.45,3.95-2.06,5.11-2.94,1.36-13.14,5.2-33.36,4.14-12.73-.67-26.57-3.97-29.26-5.33-2.47-1.25-2.82-3.03-1.89-5.18Z" fill="#000" stroke-width="0"/><path d="M1230.19,953.03c-.77.26-1.61-.13-1.9-.89-9.91-25.5-11.1-30.86-13.12-38.77-3.14-12.28,2.02-15.96,2.02-15.96l.51-.36s5.46-3.97,15.73,3.36c6.51,4.65,11.45,7.42,32.27,25.18.62.53.71,1.45.21,2.09-1.59,2.03-5.77,6.63-15.32,13.64-.4.29-.8.59-1.22.89-.42.29-.83.58-1.24.86-9.77,6.7-15.5,9.13-17.94,9.96Z" fill="#000" stroke-width="0"/><path d="M1269.11,918.16c-15.92-14.09-27.53-27.62-32.94-33.97-6.03-7.08-3.91-13.22-3.91-13.22,0,0,2.64-7.3,11.74-9.18,8.17-1.69,25.64-5.22,46.86-6.55,2.33-.14,3.89.79,4.22,3.54.39,3.22.89,14.1-6.37,33-4.57,11.9-11.98,24.04-14.11,26.19-1.95,1.96-3.75,1.75-5.51.2Z" fill="#000" stroke-width="0"/><path d="M1294.99,847.08c0,.81-.65,1.48-1.46,1.51-27.34,1.07-32.79.45-40.93-.21-12.64-1.03-14.43-7.11-14.43-7.11l-.18-.6s-1.98-6.45,8.29-13.78c6.52-4.65,10.74-8.42,34.32-22.31.7-.41,1.6-.2,2.04.48,1.4,2.17,4.39,7.62,7.91,18.93.15.47.29.95.44,1.44.14.49.28.98.41,1.45,3.15,11.42,3.58,17.62,3.58,20.2Z" fill="#000" stroke-width="0"/><path d="M1273.77,797.52c-18.33,10.77-34.79,17.62-42.51,20.79-8.6,3.54-13.78-.38-13.78-.38,0,0-6.12-4.77-5.09-14.01.93-8.29,2.98-26,8.29-46.59.59-2.26,1.96-3.46,4.68-2.92,3.18.63,13.68,3.52,29.41,16.28,9.9,8.03,19.14,18.84,20.52,21.53,1.26,2.46.5,4.11-1.52,5.3Z" fill="#000" stroke-width="0"/><path d="M1224.29,731.22c-5.98,24.47-23.45,82.03-25.34,87.1-1.9,5.11-7.24,5.5-9.97,5.39-2.72,0-8.02-.6-9.71-5.78-1.68-5.14-16.81-63.36-21.79-88.05-.08-.39.16-.77.54-.87l.87-.22c.54-.14,1.1.19,1.24.74,17.38,69.68,20.78,74.86,29.27,75.14,8.47.05,12.09-5.07,32.25-73.89.16-.54.73-.85,1.27-.69l.85.26c.38.11.6.51.51.89Z" fill="#ea1600" stroke-width="0"/><path d="M1080.71,782.55c21.63,12.92,71.48,46.59,75.76,49.88,4.32,3.33,3.12,8.54,2.21,11.11-.8,2.6-2.94,7.49-8.39,7.58-5.4.09-65.5-2.61-90.56-5.13-.4-.04-.69-.38-.67-.78l.04-.89c.03-.56.51-1,1.07-.97,71.71,3.92,77.66,2.21,80.42-5.83,2.55-8.08-1.28-13.05-61.1-52.6-.47-.31-.6-.95-.28-1.42l.5-.74c.22-.33.66-.43,1-.22Z" fill="#ea1600" stroke-width="0"/><path d="M1317.41,852.33c-25.13,1.79-85.28,2.74-90.67,2.49-5.45-.25-7.45-5.22-8.17-7.84-.83-2.59-1.88-7.82,2.54-11.02,4.38-3.17,55.19-35.36,77.19-47.65.35-.19.78-.09,1,.25l.48.76c.3.48.15,1.11-.33,1.4-61.03,37.84-64.93,42.66-62.6,50.83,2.54,8.08,8.52,9.96,80.21,8.14.56-.01,1.03.43,1.04,1v.89c.02.4-.28.73-.68.76Z" fill="#ea1600" stroke-width="0"/><path d="M1086.98,933.68c19.09-16.43,66.78-53.1,71.26-56.12,4.52-3.05,9.09-.26,11.24,1.41,2.21,1.58,6.18,5.15,4.54,10.35-1.62,5.15-23.17,61.32-33.48,84.3-.16.36-.58.54-.95.39l-.83-.32c-.52-.2-.78-.8-.58-1.32,26.38-66.79,26.63-72.98,19.88-78.15-6.86-4.97-12.79-2.91-69.21,41.35-.44.35-1.09.27-1.43-.18l-.54-.71c-.24-.31-.2-.76.1-1.02Z" fill="#ea1600" stroke-width="0"/><path d="M1232.36,976.41c-9.66-23.27-29.61-80.02-31.09-85.21-1.49-5.25,2.59-8.72,4.85-10.24,2.19-1.61,6.82-4.26,11.25-1.08,4.39,3.15,51.03,41.14,69.65,58.11.29.27.33.72.08,1.03l-.57.69c-.36.43-1,.5-1.44.14-55.23-45.9-61.03-48.07-68.04-43.27-6.86,4.97-6.75,11.24,17.7,78.65.19.53-.08,1.12-.62,1.3l-.84.3c-.37.13-.79-.05-.94-.42Z" fill="#ea1600" stroke-width="0"/><circle cx="1188.39" cy="854.74" r="26.04" fill="#ea1600" stroke-width="0"/><circle cx="1188.39" cy="854.74" r="24.82" fill="#141414" stroke-width="0"/><circle cx="1188.39" cy="854.74" r="18.74" fill="#1f1f1f" stroke-width="0"/><circle cx="1188.39" cy="854.74" r="17.16" fill="#141414" stroke-width="0"/><path d="M1186.27,891.66h0c-.05.01-.1.01-.15,0,.05,0,.1,0,.15,0Z" fill="#a2a2a1" stroke-width="0"/><path d="M1222.54,953.89l-1.46.47c-10.49-25.38-18.58-41.41-23.06-47.08-4.79-6.06-9.31-6.44-11.81-6.54-1.76.27-5.75.15-10.65,6.35-4.48,5.67-13.93,21.89-24.42,47.27l-1.46-.47c.47-.94,19.54-47.36,22.68-55.08,3.04-7.49,10.02-7,13.59-7.14.05,0,.11,0,.16,0h.01c.05,0,.1,0,.15,0,3.68.12,12.72-.67,15.77,6.82,3.14,7.72,20.03,54.46,20.5,55.4Z" fill="#000" opacity=".3" stroke-width="0"/><path d="M1186.11,891.67c-.05,0-.1,0-.16,0v-.02c.05,0,.1,0,.16,0Z" fill="#a2a2a1" stroke-width="0"/><path d="M1152.84,864.86h-.01s-.03-.1-.04-.14c.02.05.03.1.05.14Z" fill="#a2a2a1" stroke-width="0"/><path d="M1104.49,917.87l-.88-1.25c21.13-17.53,34.06-30,38.15-35.96,4.37-6.36,3.4-10.8,2.75-13.22-.78-1.6-1.84-5.45-9.22-8.29-6.75-2.6-25.04-6.83-52.38-9.34l.02-1.53c1.04.17,51.03,4.65,59.33,5.36,8.05.69,9.65,7.5,10.84,10.87.02.05.04.1.05.15h0c.01.06.03.11.04.16.98,3.55,4.4,11.96-1.85,17.08-6.44,5.28-46.09,35.25-46.85,35.98Z" fill="#000" opacity=".3" stroke-width="0"/><path d="M1152.79,864.7s-.03-.1-.05-.15h.02s.02.1.04.15Z" fill="#a2a2a1" stroke-width="0"/><path d="M1102.95,796.03l.87-1.26c23.75,13.79,39.9,21.62,46.91,23.41,7.48,1.91,11.31-.53,13.36-1.97,1.23-1.28,4.48-3.61,4.6-11.51.12-7.23-2.23-25.85-9.3-52.39l1.44-.51c.2,1.03,13.23,49.5,15.43,57.53,2.13,7.8-3.71,11.65-6.46,13.92-.04.03-.08.07-.12.1h0s-.08.07-.12.1c-3,2.14-9.7,8.25-16.67,4.15-7.18-4.23-48.98-31.1-49.93-31.56Z" fill="#000" opacity=".3" stroke-width="0"/><path d="M1219.53,754.83l1.45.49c-6.74,26.62-9.84,44.31-9.64,51.53.22,7.72,3.62,10.73,5.56,12.3,1.57.83,4.7,3.31,12.34,1.26,6.98-1.87,24.25-9.24,47.82-23.32l.89,1.25c-.94.47-43.97,26.31-51.09,30.63-6.91,4.19-12.22-.37-15.16-2.39-.04-.03-.09-.06-.13-.09h0s-.08-.07-.12-.1c-2.88-2.3-10.6-7.07-8.57-14.89,2.09-8.06,16.47-55.64,16.65-56.67Z" fill="#000" opacity=".3" stroke-width="0"/><path d="M1293.19,853.32v1.53c-27.38,2.13-45.13,4.85-51.91,7.36-7.24,2.68-9.01,6.86-9.88,9.21-.28,1.75-1.64,5.51,2.75,12.09,4.01,6.02,16.51,20.02,37.4,37.85l-.9,1.24c-.75-.74-38.99-33.24-45.36-38.61-6.18-5.21-3.56-11.7-2.58-15.13.01-.05.03-.1.04-.15h0c.02-.06.03-.1.05-.15,1.25-3.47,3.3-12.3,11.37-12.88,8.31-.6,57.98-2.2,59.02-2.36Z" fill="#000" opacity=".3" stroke-width="0"/><ellipse cx="1300.04" cy="819.08" rx="2.82" ry="3.29" transform="translate(-172.11 378.88) rotate(-15.56)" fill="#000" stroke-width="0"/><polygon points="1302.52 819.72 1301.84 817.26 1299.36 816.62 1297.56 818.45 1298.25 820.91 1300.73 821.55 1302.52 819.72" fill="#333" stroke-width="0"/><circle cx="1300.04" cy="819.08" r="2.01" fill="#121111" stroke-width="0"/><circle cx="1300.04" cy="819.08" r="1.71" fill="#000" stroke-width="0"/><circle cx="1300.04" cy="819.08" r=".82" fill="#121111" stroke-width="0"/><circle cx="1300.04" cy="819.08" r="1.37" fill="#1d1d1b" stroke-width="0"/></g><g id="d"><circle cx="605.37" cy="820.15" r="168.31" fill="#bf1600" stroke-width="0"/><circle cx="605.37" cy="820.15" r="152.92" fill="#000" opacity=".3" stroke-width="0"/><circle cx="604" cy="820.18" r="142.18" fill="#bf1600" stroke-width="0"/><path d="M632.78,693.78c.94.29,1.49,1.27,1.24,2.23-8.47,32.13-11.12,38.24-14.78,47.45-5.68,14.31-13.38,14.23-13.38,14.23h-.76s-8.2,0-13.06-14.53c-3.08-9.22-5.96-15.46-13.72-47.77-.23-.96.33-1.93,1.29-2.2,3.01-.85,10.4-2.39,24.79-2.47.6,0,1.21,0,1.83,0,.62.01,1.23.03,1.83.04,14.38.39,21.74,2.09,24.73,3.02Z" fill="#000" stroke-width="0"/><path d="M568.88,700.28c5.81,25.16,7.76,46.71,8.63,56.81.97,11.25-5.46,15.83-5.46,15.83,0,0-7.75,5.36-18.08.8-9.27-4.09-29.04-12.91-50.96-26.55-2.41-1.5-3.29-3.53-1.68-6.48,1.89-3.45,9.06-14.57,29.55-28.15,12.91-8.55,28.79-15.33,32.41-15.95,3.31-.57,4.94.92,5.58,3.69Z" fill="#000" stroke-width="0"/><path d="M492.46,753.77c.57-.81,1.67-1.02,2.5-.49,27.94,17.98,32.93,22.39,40.57,28.72,11.85,9.83,9.4,17.12,9.4,17.12l-.24.72s-2.52,7.8-17.85,7.93c-9.72.08-16.54.89-49.67-1.71-.98-.08-1.73-.92-1.7-1.9.12-3.13.94-10.63,5.31-24.34.18-.57.37-1.15.56-1.74.2-.59.41-1.16.61-1.72,4.82-13.56,8.71-20.03,10.51-22.59Z" fill="#000" stroke-width="0"/><path d="M479.12,815.49c25.7,2.48,46.75,7.48,56.6,9.87,10.97,2.65,13.28,10.2,13.28,10.2,0,0,2.62,9.05-4.98,17.4-6.83,7.49-21.47,23.43-41.36,39.88-2.19,1.81-4.39,2-6.68-.47-2.67-2.89-10.94-13.22-17.3-36.97-4.01-14.96-5.39-32.17-4.83-35.8.51-3.32,2.44-4.4,5.27-4.12Z" fill="#000" stroke-width="0"/><path d="M505.85,905.33c-.59-.79-.45-1.91.31-2.53,25.73-21.02,31.47-24.4,39.85-29.7,13.01-8.23,19.19-3.65,19.19-3.65l.61.45s6.64,4.81,2.03,19.43c-2.92,9.27-4.27,16.01-16.97,46.71-.38.91-1.41,1.37-2.33,1.03-2.94-1.08-9.82-4.18-21.51-12.57-.49-.35-.98-.71-1.48-1.07-.5-.38-.98-.74-1.45-1.11-11.4-8.77-16.36-14.47-18.23-16.97Z" fill="#000" stroke-width="0"/><path d="M560.73,937.2c10.3-23.67,21.56-42.15,26.88-50.78,5.91-9.62,13.81-9.47,13.81-9.47,0,0,9.42.31,15.01,10.12,5.01,8.81,15.65,27.66,25.15,51.66,1.04,2.64.54,4.79-2.51,6.21-3.57,1.65-15.95,6.32-40.5,5.03-15.46-.81-32.26-4.82-35.54-6.47-3-1.51-3.43-3.68-2.29-6.28Z" fill="#000" stroke-width="0"/><path d="M654.43,939.54c-.93.32-1.95-.16-2.31-1.08-12.04-30.97-13.48-37.47-15.94-47.08-3.81-14.92,2.46-19.38,2.46-19.38l.62-.44s6.62-4.83,19.1,4.07c7.91,5.64,13.91,9,39.18,30.58.75.64.86,1.76.25,2.54-1.93,2.46-7.01,8.05-18.6,16.57-.48.35-.98.71-1.48,1.08-.51.35-1.01.7-1.5,1.04-11.87,8.13-18.82,11.08-21.78,12.1Z" fill="#000" stroke-width="0"/><path d="M701.7,897.19c-19.33-17.12-33.43-33.53-39.99-41.25-7.32-8.6-4.74-16.06-4.74-16.06,0,0,3.2-8.86,14.26-11.15,9.92-2.05,31.14-6.34,56.9-7.95,2.83-.18,4.73.96,5.13,4.3.47,3.91,1.08,17.12-7.73,40.08-5.55,14.46-14.55,29.19-17.14,31.8-2.37,2.38-4.56,2.12-6.69.24Z" fill="#000" stroke-width="0"/><path d="M733.12,810.88c0,.99-.78,1.8-1.77,1.83-33.2,1.3-39.82.55-49.7-.26-15.35-1.25-17.52-8.63-17.52-8.63l-.21-.73s-2.41-7.83,10.07-16.73c7.91-5.64,13.04-10.22,41.67-27.09.85-.5,1.95-.24,2.48.59,1.7,2.63,5.33,9.25,9.61,22.98.18.57.36,1.16.54,1.75.17.6.33,1.18.49,1.76,3.83,13.87,4.35,21.4,4.35,24.53Z" fill="#000" stroke-width="0"/><path d="M707.35,750.7c-22.26,13.08-42.24,21.39-51.61,25.25-10.44,4.29-16.74-.46-16.74-.46,0,0-7.44-5.79-6.18-17.01,1.13-10.07,3.62-31.57,10.07-56.57.71-2.75,2.38-4.2,5.68-3.54,3.86.77,16.61,4.28,35.71,19.77,12.03,9.75,23.25,22.88,24.92,26.14,1.53,2.99.6,4.99-1.84,6.43Z" fill="#000" stroke-width="0"/><path d="M647.27,670.2c-7.26,29.72-28.48,99.61-30.77,105.76-2.31,6.21-8.8,6.67-12.1,6.54-3.31,0-9.74-.73-11.79-7.02-2.04-6.24-20.41-76.93-26.45-106.92-.1-.47.19-.94.66-1.06l1.05-.27c.66-.17,1.34.23,1.5.9,21.11,84.61,25.23,90.9,35.54,91.24,10.28.06,14.68-6.16,39.17-89.72.19-.66.88-1.03,1.54-.83l1.04.31c.46.14.73.62.62,1.08Z" fill="#ea1600" stroke-width="0"/><path d="M472.93,732.53c26.26,15.69,86.8,56.57,92,60.57,5.25,4.04,3.79,10.37,2.68,13.49-.97,3.16-3.57,9.09-10.19,9.2-6.56.11-79.53-3.17-109.97-6.23-.48-.05-.84-.46-.82-.94l.05-1.09c.03-.68.62-1.21,1.3-1.17,87.07,4.76,94.3,2.68,97.66-7.08,3.09-9.81-1.56-15.85-74.19-63.87-.57-.38-.73-1.15-.34-1.72l.61-.9c.27-.4.8-.52,1.22-.27Z" fill="#ea1600" stroke-width="0"/><path d="M760.34,817.25c-30.51,2.17-103.55,3.32-110.1,3.02-6.62-.3-9.04-6.34-9.93-9.53-1.01-3.15-2.28-9.5,3.08-13.38,5.31-3.85,67.02-42.94,93.72-57.86.42-.24.95-.1,1.21.3l.58.92c.36.58.19,1.34-.4,1.71-74.11,45.95-78.84,51.8-76.01,61.72,3.08,9.81,10.35,12.1,97.4,9.88.68-.02,1.25.53,1.26,1.21l.02,1.08c0,.48-.36.89-.84.92Z" fill="#ea1600" stroke-width="0"/><path d="M480.54,916.04c23.19-19.96,81.09-64.48,86.53-68.15,5.49-3.71,11.04-.31,13.65,1.72,2.69,1.92,7.5,6.26,5.51,12.57-1.97,6.26-28.13,74.46-40.65,102.37-.2.44-.7.65-1.15.48l-1.01-.39c-.64-.25-.95-.97-.7-1.6,32.03-81.11,32.33-88.62,24.14-94.89-8.33-6.03-15.53-3.53-84.04,50.22-.54.42-1.32.33-1.74-.22l-.66-.86c-.3-.38-.24-.93.13-1.24Z" fill="#ea1600" stroke-width="0"/><path d="M657.07,967.93c-11.73-28.26-35.96-97.16-37.75-103.47-1.81-6.37,3.15-10.59,5.89-12.43,2.67-1.96,8.29-5.17,13.66-1.31,5.33,3.82,61.96,49.96,84.57,70.56.36.33.4.87.1,1.25l-.69.84c-.43.53-1.22.6-1.74.17-67.06-55.74-74.11-58.37-82.62-52.54-8.33,6.03-8.2,13.65,21.49,95.51.23.64-.1,1.36-.75,1.58l-1.02.36c-.45.16-.96-.06-1.14-.51Z" fill="#ea1600" stroke-width="0"/><circle cx="603.68" cy="820.18" r="31.61" fill="#ea1600" stroke-width="0"/><circle cx="603.68" cy="820.18" r="30.14" fill="#141414" stroke-width="0"/><circle cx="603.68" cy="820.18" r="22.76" fill="#1f1f1f" stroke-width="0"/><circle cx="603.68" cy="820.18" r="20.84" fill="#141414" stroke-width="0"/><path d="M601.11,865.01v.02c-.06,0-.13,0-.19,0,.06,0,.13,0,.19,0Z" fill="#a2a2a1" stroke-width="0"/><path d="M645.15,940.58l-1.77.57c-12.74-30.81-22.56-50.28-28-57.17-5.81-7.35-11.3-7.82-14.34-7.94-2.13.33-6.98.18-12.93,7.72-5.44,6.89-16.91,26.59-29.65,57.4l-1.77-.57c.57-1.14,23.73-57.51,27.54-66.88,3.7-9.09,12.17-8.5,16.5-8.67.06,0,.13,0,.19,0h.01c.06,0,.12,0,.19,0,4.47.14,15.45-.81,19.15,8.29,3.81,9.37,24.32,66.12,24.89,67.27Z" fill="#000" opacity=".3" stroke-width="0"/><path d="M600.91,865.02c-.06,0-.13,0-.19,0v-.02c.06,0,.13,0,.19,0Z" fill="#a2a2a1" stroke-width="0"/><path d="M560.51,832.47h-.02c-.01-.06-.03-.12-.05-.18.02.06.04.12.06.18Z" fill="#a2a2a1" stroke-width="0"/><path d="M501.79,896.84l-1.07-1.52c25.66-21.29,41.36-36.43,46.33-43.66,5.3-7.73,4.13-13.11,3.34-16.05-.95-1.94-2.24-6.61-11.2-10.07-8.19-3.16-30.4-8.29-63.61-11.34l.02-1.86c1.26.21,61.96,5.65,72.04,6.51,9.78.84,11.72,9.11,13.16,13.19.02.06.04.12.07.18h0c.01.07.03.13.05.19,1.19,4.31,5.34,14.52-2.25,20.74-7.82,6.41-55.96,42.8-56.89,43.68Z" fill="#000" opacity=".3" stroke-width="0"/><path d="M560.45,832.28c-.02-.06-.04-.12-.06-.18h.02c.01.05.03.12.04.18Z" fill="#a2a2a1" stroke-width="0"/><path d="M499.93,748.89l1.06-1.53c28.84,16.75,48.46,26.26,56.96,28.43,9.08,2.31,13.73-.65,16.22-2.4,1.49-1.56,5.44-4.38,5.59-13.98.14-8.78-2.71-31.39-11.29-63.61l1.75-.62c.24,1.25,16.07,60.11,18.73,69.86,2.58,9.47-4.51,14.14-7.85,16.9-.05.04-.1.08-.14.12h-.01c-.05.04-.1.08-.15.12-3.64,2.6-11.78,10.02-20.24,5.04-8.72-5.13-59.48-37.77-60.62-38.33Z" fill="#000" opacity=".3" stroke-width="0"/><path d="M641.49,698.86l1.76.6c-8.19,32.32-11.95,53.8-11.7,62.58.27,9.37,4.39,13.03,6.76,14.94,1.91,1.01,5.7,4.03,14.98,1.54,8.48-2.27,29.45-11.22,58.07-28.32l1.08,1.52c-1.14.57-53.39,31.95-62.04,37.19-8.4,5.08-14.84-.45-18.41-2.91-.05-.04-.11-.07-.16-.11h-.01s-.1-.08-.15-.12c-3.5-2.79-12.87-8.58-10.4-18.08,2.54-9.79,19.99-67.56,20.22-68.82Z" fill="#000" opacity=".3" stroke-width="0"/><path d="M730.94,818.46v1.86c-33.25,2.59-54.8,5.89-63.03,8.94-8.79,3.25-10.94,8.33-11.99,11.18-.35,2.13-1.99,6.69,3.34,14.68,4.87,7.31,20.05,24.31,45.41,45.96l-1.09,1.51c-.91-.9-47.35-40.36-55.08-46.88-7.5-6.33-4.32-14.2-3.14-18.37.02-.06.03-.12.05-.18h0c.02-.07.04-.13.06-.19,1.52-4.21,4.01-14.94,13.8-15.64,10.09-.72,70.4-2.67,71.67-2.86Z" fill="#000" opacity=".3" stroke-width="0"/><ellipse cx="739.26" cy="776.89" rx="3.42" ry="4" transform="translate(-181.35 226.85) rotate(-15.56)" fill="#000" stroke-width="0"/><polygon points="742.27 777.66 741.43 774.67 738.42 773.89 736.25 776.11 737.08 779.11 740.09 779.88 742.27 777.66" fill="#333" stroke-width="0"/><circle cx="739.26" cy="776.89" r="2.44" fill="#121111" stroke-width="0"/><circle cx="739.26" cy="776.89" r="2.07" fill="#000" stroke-width="0"/><circle cx="739.26" cy="776.89" r=".99" fill="#121111" stroke-width="0"/><circle cx="739.26" cy="776.89" r="1.67" fill="#1d1d1b" stroke-width="0"/></g></g></svg>