<?xml version="1.0" encoding="UTF-8"?><svg id="a" xmlns="http://www.w3.org/2000/svg" width="1622.14" height="1047.4" viewBox="0 0 1622.14 1047.4"><g id="b"><path d="M544.49,957.8l-1.42,29.92c-.01.25.02.49.08.73l1.31,4.81c.5,1.85,1.84,3.37,3.61,4.1h0c1.47.61,1.93,2.47.92,3.69l-1.79,2.17c-.42.51-.61,1.17-.52,1.83l1.22,8.9c.02.17.03.34.01.51l-.52,6.47c-.02.2,0,.41.03.61l2.58,14.4c.2,1.11,1.16,1.93,2.29,1.95l36.49.63c.39,0,.77.11,1.12.3l1.23.69c.36.2.76.3,1.16.3l16.67-.05c.81,0,1.57-.42,2-1.11l2.2-3.52c.84-1.34,2.74-1.49,3.78-.31l3.66,4.17c.46.52,1.11.81,1.8.8l80.68-.9c1.37-.02,2.44-1.18,2.33-2.55-.25-3.08-.72-7.87-1.2-7.9-.44-.02,2.84.41,5.37.73,1.46.19,2.74-.99,2.66-2.47l-3.33-64.07c-.05-1.04-.78-1.91-1.78-2.17l-7.26-1.84c-1.32-.34-2.09-1.72-1.67-3.02l1.04-3.23c.48-1.49-.59-3.02-2.15-3.09l-139.87-6.18c-.18,0-.35,0-.53.03l-5.27.74c-2.36.33-2.8,3.54-.63,4.51l1.92.85c.42.18.77.48,1.02.86l.9,1.37c.99,1.51-.01,3.54-1.82,3.66l-6.13.41c-1.2.08-2.15,1.05-2.2,2.25Z" fill="#bfb99c" stroke="#000" stroke-miterlimit="10" stroke-width="5"/><path d="M557.21,995.12c1.29.5,1.7,2.02.82,3.02l-1.57,1.77c-.37.42-.53.96-.45,1.49l1.1,7.28c.02.14.03.28.01.42l-.44,5.29c-.01.17,0,.33.03.5l2.31,11.77c.18.91,1.02,1.58,2.01,1.6l32.06.62c.34,0,.68.09.98.25l1.08.57c.31.16.67.25,1.02.25h8.84c.71,0,1.37-.33,1.75-.89l1.93-2.87c3.77-5.76,8.19-1.21,9.12-.24l3.23,3.42c.4.42.98.67,1.59.66l70.87-.5c1.21,0,2.14-.96,2.04-2.08-.23-2.52-.66-6.44-1.08-6.46-.38-.02,2.49.34,4.72.62,1.29.16,2.4-.8,2.33-2.01l-1.55-26.14s-24.87,4.59-77.55-2.4c-38.53-5.11-65.2,4.08-65.2,4.08Z" fill="#000" opacity=".2" stroke-width="0"/><circle cx="682.92" cy="968.29" r="2.87" fill="#999" opacity=".4" stroke-width="0"/><circle cx="688.04" cy="960.88" r="3.8" fill="#999" opacity=".4" stroke-width="0"/><circle cx="690.25" cy="968.29" r="2.13" fill="#999" opacity=".4" stroke-width="0"/><circle cx="554.67" cy="972.32" r="3.8" fill="#999" opacity=".4" stroke-width="0"/><circle cx="553.55" cy="979.97" r="2.13" fill="#999" opacity=".4" stroke-width="0"/><path d="M1095.26,971.02l1.5,18.32c.04.48-.08.95-.33,1.36l-2.2,3.53c-.26.41-.37.89-.33,1.38l.79,8.55c.03.35.15.69.34.98l1.3,2.05c.21.32.32.7.34,1.08l.63,13.13c0,.1.02.19.03.28l1.95,10.9c.23,1.26,1.47,2.07,2.71,1.76l7.73-1.91c.28-.07.57-.08.86-.04l20.13,3c.27.04.52.13.76.26l.98.55c.34.19.72.29,1.1.28l89.4-.74c1.02,0,1.9-.71,2.14-1.69l6.75-27.71c.07-.27.08-.56.04-.84l-4.4-31.07c-.13-.89-.78-1.62-1.65-1.84l-5.44-1.38c-1.24-.31-1.96-1.61-1.57-2.83l.61-1.89c.45-1.39-.55-2.83-2.01-2.9l-111.04-4.9c-.84-.04-1.62.4-2.03,1.13l-1.57,2.8c-.41.72-.37,1.61.08,2.3h0c.93,1.42-.01,3.32-1.7,3.43l-3.85.26c-1.23.08-2.16,1.16-2.06,2.39Z" fill="#bfb99c" stroke="#000" stroke-miterlimit="10" stroke-width="5"/><circle cx="1102.08" cy="980.01" r="2.31" fill="#999" opacity=".4" stroke-width="0"/><circle cx="1109.33" cy="980.12" r="3.06" fill="#999" opacity=".4" stroke-width="0"/><circle cx="1105.37" cy="984.91" r="1.71" fill="#999" opacity=".4" stroke-width="0"/><circle cx="1209.94" cy="972.48" r="2.31" fill="#999" opacity=".4" stroke-width="0"/><circle cx="1215.1" cy="977.58" r="3.06" fill="#999" opacity=".4" stroke-width="0"/><path d="M1102.4,1002.27l.34,2.53c.03.23.13.46.3.66l1.15,1.38c.18.22.29.47.31.72l.68,8.77c0,.06.02.13.03.19l1.8,7.3c.21.84,1.3,1.39,2.38,1.2l6.7-1.2c.24-.04.5-.05.75-.02l17.54,2.19c.23.03.46.09.66.18l.85.37c.29.13.63.2.96.2l77.74.36c.88,0,1.64-.45,1.84-1.11l5.61-18.43c.06-.18.06-.37.03-.56,0,0-19.42-9.81-42.02-8.04-67.62,5.32-77.65,3.28-77.65,3.28Z" fill="#000" opacity=".2" stroke-width="0"/></g></svg>